<svg width="200" height="59" viewBox="0 0 200 59" fill="none" xmlns="http://www.w3.org/2000/svg">
<g clip-path="url(#clip0_3264_6655)">
<path d="M191.976 0.5H7.71693C3.64638 0.5 0.346558 3.74594 0.346558 7.75V51.25C0.346558 55.2541 3.64638 58.5 7.71693 58.5H191.976C196.047 58.5 199.347 55.2541 199.347 51.25V7.75C199.347 3.74594 196.047 0.5 191.976 0.5Z" fill="black"/>
<path d="M191.976 1.66C193.618 1.66 195.193 2.30162 196.354 3.44372C197.515 4.58582 198.167 6.13483 198.167 7.75V51.25C198.167 52.8652 197.515 54.4142 196.354 55.5563C195.193 56.6984 193.618 57.34 191.976 57.34H7.71693C6.07494 57.34 4.50021 56.6984 3.33915 55.5563C2.17809 54.4142 1.52582 52.8652 1.52582 51.25V7.75C1.52582 6.13483 2.17809 4.58582 3.33915 3.44372C4.50021 2.30162 6.07494 1.66 7.71693 1.66H191.976ZM191.976 0.5H7.71693C5.76218 0.5 3.8875 1.26384 2.50529 2.62348C1.12308 3.98311 0.346558 5.82718 0.346558 7.75V51.25C0.346558 53.1728 1.12308 55.0169 2.50529 56.3765C3.8875 57.7362 5.76218 58.5 7.71693 58.5H191.976C193.931 58.5 195.806 57.7362 197.188 56.3765C198.57 55.0169 199.347 53.1728 199.347 51.25V7.75C199.347 5.82718 198.57 3.98311 197.188 2.62348C195.806 1.26384 193.931 0.5 191.976 0.5Z" fill="#A6A6A6"/>
<path d="M70.2472 15.3481C70.2714 15.8798 70.186 16.4109 69.996 16.9093C69.806 17.4077 69.5154 17.8631 69.1417 18.2481C68.7229 18.6733 68.2176 19.0068 67.6587 19.2267C67.0999 19.4466 66.5001 19.5479 65.8987 19.5241C65.2938 19.5373 64.6926 19.4283 64.1323 19.2039C63.5719 18.9794 63.0644 18.6442 62.641 18.2191C61.7821 17.3548 61.3011 16.1942 61.3011 14.9856C61.3011 13.7769 61.7821 12.6163 62.641 11.7521C63.2977 11.1209 64.1294 10.6946 65.0316 10.5269C65.9338 10.3592 66.8663 10.4576 67.7118 10.8096C68.2434 11.0245 68.7175 11.3569 69.0974 11.7811L68.3162 12.5496C68.0235 12.2027 67.6525 11.9277 67.2329 11.7465C66.8133 11.5653 66.3564 11.4828 65.8987 11.5056C65.3209 11.5095 64.7529 11.6526 64.2443 11.9223C63.7357 12.192 63.302 12.5802 62.9811 13.0529C62.6602 13.5256 62.4619 14.0684 62.4035 14.6338C62.3451 15.1993 62.4284 15.7702 62.6461 16.2967C62.8639 16.8232 63.2094 17.2892 63.6525 17.6541C64.0956 18.0189 64.6227 18.2714 65.1879 18.3895C65.7531 18.5076 66.3392 18.4878 66.8948 18.3317C67.4504 18.1756 67.9586 17.888 68.3752 17.4941C68.8254 17.0085 69.0865 16.3818 69.1122 15.7251H65.8987V14.6811H70.1883C70.2218 14.902 70.2415 15.1247 70.2472 15.3481Z" fill="white" stroke="white" stroke-width="0.411304" stroke-miterlimit="10"/>
<path d="M76.9984 11.7229H73.0184V14.4779H76.6446V15.5219H73.0184V18.2769H76.9984V19.3499H71.8687V10.6499H76.9984V11.7229Z" fill="white" stroke="white" stroke-width="0.411304" stroke-miterlimit="10"/>
<path d="M81.8335 19.3499H80.6985V11.7229H78.222V10.6499H84.3689V11.7229H81.8335V19.3499Z" fill="white" stroke="white" stroke-width="0.411304" stroke-miterlimit="10"/>
<path d="M88.7026 19.3499V10.6499H89.8377V19.3499H88.7026Z" fill="white" stroke="white" stroke-width="0.411304" stroke-miterlimit="10"/>
<path d="M94.8791 19.3499H93.744V11.7229H91.2676V10.6499H97.3408V11.7229H94.8791V19.3499Z" fill="white" stroke="white" stroke-width="0.411304" stroke-miterlimit="10"/>
<path d="M108.853 18.2189C108.427 18.6381 107.922 18.9705 107.365 19.1974C106.809 19.4243 106.213 19.541 105.61 19.541C105.008 19.541 104.411 19.4243 103.855 19.1974C103.299 18.9705 102.793 18.6381 102.367 18.2189C101.534 17.3475 101.07 16.1963 101.07 14.9999C101.07 13.8036 101.534 12.6523 102.367 11.7809C102.784 11.35 103.288 11.0099 103.846 10.7826C104.405 10.5553 105.006 10.4459 105.61 10.4614C106.214 10.452 106.813 10.5642 107.37 10.7912C107.928 11.0181 108.433 11.3549 108.853 11.7809C109.277 12.205 109.61 12.7084 109.833 13.2613C110.056 13.8141 110.164 14.4053 110.15 14.9999C110.17 15.5952 110.065 16.1881 109.841 16.7418C109.618 17.2956 109.282 17.7983 108.853 18.2189ZM103.207 17.4939C103.521 17.8069 103.896 18.0555 104.308 18.2251C104.721 18.3948 105.163 18.4821 105.61 18.4821C106.057 18.4821 106.5 18.3948 106.912 18.2251C107.325 18.0555 107.699 17.8069 108.013 17.4939C108.649 16.814 109.002 15.9239 109.002 14.9999C109.002 14.076 108.649 13.1858 108.013 12.5059C107.699 12.1929 107.325 11.9443 106.912 11.7747C106.5 11.6051 106.057 11.5177 105.61 11.5177C105.163 11.5177 104.721 11.6051 104.308 11.7747C103.896 11.9443 103.521 12.1929 103.207 12.5059C102.571 13.1858 102.218 14.076 102.218 14.9999C102.218 15.9239 102.571 16.814 103.207 17.4939Z" fill="white" stroke="white" stroke-width="0.411304" stroke-miterlimit="10"/>
<path d="M111.757 19.3499V10.6499H113.128L117.432 17.4214V15.7394V10.6499H118.567V19.3499H117.388L112.892 12.2594V13.9269V19.3499H111.757Z" fill="white" stroke="white" stroke-width="0.411304" stroke-miterlimit="10"/>
<path d="M100.79 32.0376C99.5479 32.0405 98.3347 32.4055 97.3036 33.0867C96.2726 33.7678 95.47 34.7343 94.9974 35.8641C94.5248 36.9939 94.4035 38.2362 94.6486 39.4339C94.8938 40.6315 95.4944 41.7308 96.3747 42.5926C97.255 43.4544 98.3753 44.0402 99.594 44.2757C100.813 44.5112 102.075 44.386 103.221 43.9158C104.368 43.4456 105.346 42.6517 106.034 41.6343C106.722 40.6169 107.087 39.4218 107.084 38.2001C107.096 37.3851 106.941 36.5761 106.629 35.8211C106.316 35.0662 105.853 34.3809 105.266 33.8059C104.678 33.2309 103.979 32.778 103.21 32.4742C102.441 32.1704 101.618 32.0219 100.79 32.0376ZM100.79 41.9411C100.029 41.9935 99.269 41.8193 98.6096 41.4414C97.9503 41.0634 97.4218 40.4991 97.0929 39.8218C96.764 39.1445 96.6498 38.3855 96.7651 37.6435C96.8805 36.9015 97.2202 36.2108 97.7399 35.6612C98.2597 35.1116 98.9355 34.7285 99.6795 34.5617C100.424 34.3949 101.201 34.4522 101.912 34.726C102.622 34.9998 103.233 35.4776 103.664 36.0972C104.094 36.7167 104.326 37.4494 104.328 38.2001C104.351 38.6757 104.278 39.1512 104.112 39.5985C103.946 40.0458 103.691 40.4559 103.361 40.8045C103.031 41.1532 102.634 41.4334 102.192 41.6286C101.751 41.8238 101.274 41.93 100.79 41.9411ZM87.0515 32.0376C85.8095 32.0405 84.5963 32.4055 83.5652 33.0867C82.5342 33.7678 81.7316 34.7343 81.2591 35.8641C80.7865 36.9939 80.6651 38.2362 80.9102 39.4339C81.1554 40.6315 81.7561 41.7308 82.6364 42.5926C83.5166 43.4544 84.6369 44.0402 85.8556 44.2757C87.0743 44.5112 88.3366 44.386 89.4829 43.9158C90.6292 43.4456 91.6081 42.6517 92.2957 41.6343C92.9832 40.6169 93.3487 39.4218 93.3458 38.2001C93.3578 37.3851 93.203 36.5761 92.8905 35.8211C92.5781 35.0662 92.1144 34.3809 91.5271 33.8059C90.9398 33.2309 90.2409 32.778 89.472 32.4742C88.7031 32.1704 87.8799 32.0219 87.0515 32.0376ZM87.0515 41.9411C86.2902 41.9935 85.5306 41.8193 84.8713 41.4414C84.212 41.0634 83.6835 40.4991 83.3545 39.8218C83.0256 39.1445 82.9114 38.3855 83.0268 37.6435C83.1422 36.9015 83.4818 36.2108 84.0016 35.6612C84.5213 35.1116 85.1971 34.7285 85.9412 34.5617C86.6852 34.3949 87.463 34.4522 88.1735 34.726C88.884 34.9998 89.4944 35.4776 89.9252 36.0972C90.356 36.7167 90.5874 37.4494 90.5893 38.2001C90.613 38.6757 90.5397 39.1512 90.3736 39.5985C90.2076 40.0458 89.9522 40.4559 89.6225 40.8045C89.2927 41.1532 88.8954 41.4334 88.4538 41.6286C88.0123 41.8238 87.5354 41.93 87.0515 41.9411ZM70.7187 33.9371V36.5471H77.0867C76.9869 37.7764 76.4674 38.9364 75.6127 39.8386C74.9739 40.4788 74.2056 40.9799 73.3575 41.3096C72.5094 41.6393 71.6004 41.7902 70.6893 41.7526C68.8127 41.7526 67.013 41.0193 65.6861 39.714C64.3592 38.4088 63.6137 36.6385 63.6137 34.7926C63.6137 32.9467 64.3592 31.1764 65.6861 29.8711C67.013 28.5659 68.8127 27.8326 70.6893 27.8326C72.4883 27.8063 74.2254 28.4783 75.5242 29.7031L77.3963 27.8616C76.5177 27.0068 75.4746 26.3331 74.3279 25.88C73.1813 25.4268 71.9543 25.2033 70.7187 25.2226C69.4083 25.1724 68.101 25.383 66.8753 25.8417C65.6495 26.3004 64.5305 26.9978 63.5853 27.892C62.6401 28.7863 61.8882 29.8591 61.3746 31.0461C60.8609 32.233 60.5962 33.5098 60.5962 34.7998C60.5962 36.0899 60.8609 37.3666 61.3746 38.5536C61.8882 39.7406 62.6401 40.8133 63.5853 41.7076C64.5305 42.6019 65.6495 43.2993 66.8753 43.758C68.101 44.2167 69.4083 44.4272 70.7187 44.3771C71.9797 44.4266 73.237 44.2132 74.4082 43.7509C75.5794 43.2886 76.6379 42.5878 77.5142 41.6946C79.0622 40.0219 79.887 37.8219 79.8138 35.5611C79.819 35.0169 79.7746 34.4734 79.6811 33.9371H70.7187ZM137.509 35.9671C137.125 34.8546 136.406 33.8831 135.448 33.1814C134.489 32.4797 133.337 32.0808 132.143 32.0376C131.337 32.036 130.539 32.1972 129.799 32.5111C129.058 32.8249 128.391 33.2849 127.838 33.8625C127.286 34.44 126.859 35.123 126.586 35.869C126.312 36.6151 126.197 37.4085 126.247 38.2001C126.235 39.5237 126.658 40.8158 127.453 41.8835C128.249 42.9511 129.374 43.7369 130.661 44.1235C131.948 44.5102 133.327 44.4769 134.594 44.0287C135.86 43.5804 136.945 42.7413 137.686 41.6366L135.549 40.1866C135.23 40.709 134.778 41.1404 134.238 41.438C133.697 41.7356 133.087 41.889 132.468 41.8831C131.829 41.909 131.197 41.7443 130.655 41.4104C130.113 41.0766 129.686 40.5893 129.431 40.0126L137.819 36.6051L137.509 35.9671ZM128.959 38.0261C128.93 37.5757 128.991 37.1239 129.141 36.6973C129.291 36.2707 129.526 35.8778 129.832 35.5415C130.138 35.2053 130.509 34.9325 130.924 34.7392C131.339 34.5459 131.788 34.4358 132.247 34.4156C132.722 34.3871 133.194 34.4971 133.606 34.7318C134.018 34.9665 134.35 35.3155 134.561 35.7351L128.959 38.0261ZM122.149 44.0001H124.906V25.8751H122.149V44.0001ZM117.639 33.4151H117.535C117.124 32.9538 116.615 32.5854 116.045 32.3351C115.476 32.0849 114.857 31.9587 114.233 31.9651C112.623 32.0419 111.103 32.7255 109.991 33.8741C108.879 35.0228 108.258 36.5484 108.258 38.1348C108.258 39.7213 108.879 41.2469 109.991 42.3955C111.103 43.5442 112.623 44.2277 114.233 44.3046C114.858 44.3169 115.478 44.1933 116.049 43.9427C116.62 43.692 117.127 43.3205 117.535 42.8546H117.639V43.7391C117.639 46.1026 116.356 47.3641 114.292 47.3641C113.603 47.3492 112.934 47.1331 112.369 46.7433C111.805 46.3534 111.371 45.8074 111.123 45.1746L108.735 46.1461C109.177 47.2368 109.944 48.1701 110.936 48.8226C111.929 49.475 113.099 49.8159 114.292 49.8001C117.521 49.8001 120.189 47.9296 120.189 43.3766V32.4001H117.639V33.4151ZM114.469 41.9411C113.503 41.8819 112.597 41.4627 111.934 40.769C111.272 40.0753 110.903 39.1592 110.903 38.2073C110.903 37.2555 111.272 36.3394 111.934 35.6457C112.597 34.952 113.503 34.5328 114.469 34.4736C114.941 34.4936 115.404 34.6069 115.831 34.8066C116.258 35.0063 116.639 35.2883 116.953 35.636C117.266 35.9837 117.506 36.3899 117.656 36.8304C117.807 37.2708 117.866 37.7367 117.83 38.2001C117.87 38.6651 117.814 39.1333 117.665 39.5764C117.516 40.0194 117.278 40.4282 116.963 40.7779C116.649 41.1276 116.266 41.411 115.837 41.6109C115.409 41.8108 114.943 41.9232 114.469 41.9411ZM150.422 25.8751H143.818V44.0001H146.575V37.1271H150.422C151.208 37.1826 151.996 37.0783 152.739 36.8207C153.482 36.5632 154.163 36.1578 154.739 35.6299C155.316 35.1021 155.776 34.4631 156.09 33.7527C156.405 33.0423 156.567 32.2759 156.567 31.5011C156.567 30.7263 156.405 29.9598 156.09 29.2495C155.776 28.5391 155.316 27.9001 154.739 27.3722C154.163 26.8444 153.482 26.439 152.739 26.1814C151.996 25.9238 151.208 25.8196 150.422 25.8751ZM150.422 34.5751H146.575V28.3981H150.481C150.895 28.3981 151.305 28.4783 151.688 28.6343C152.071 28.7902 152.419 29.0188 152.711 29.3069C153.004 29.5951 153.237 29.9371 153.395 30.3136C153.554 30.6901 153.635 31.0936 153.635 31.5011C153.635 31.9086 153.554 32.3121 153.395 32.6886C153.237 33.065 153.004 33.4071 152.711 33.6952C152.419 33.9834 152.071 34.2119 151.688 34.3679C151.305 34.5238 150.895 34.6041 150.481 34.6041L150.422 34.5751ZM167.433 31.9796C166.429 31.9187 165.429 32.1486 164.557 32.6408C163.684 33.133 162.977 33.866 162.524 34.7491L164.956 35.7496C165.202 35.3137 165.571 34.9572 166.018 34.723C166.465 34.4889 166.972 34.3871 167.477 34.4301C167.827 34.3899 168.181 34.4186 168.52 34.5147C168.858 34.6107 169.174 34.7721 169.449 34.9894C169.723 35.2067 169.951 35.4756 170.118 35.7804C170.286 36.0851 170.39 36.4197 170.425 36.7646V36.9386C169.539 36.4803 168.552 36.2414 167.551 36.2426C164.927 36.2426 162.244 37.6926 162.244 40.3316C162.27 40.8925 162.41 41.4426 162.657 41.9491C162.903 42.4557 163.25 42.9084 163.678 43.2803C164.105 43.6523 164.605 43.9359 165.146 44.1143C165.687 44.2928 166.259 44.3624 166.828 44.3191C167.52 44.3567 168.21 44.2127 168.826 43.9019C169.443 43.591 169.964 43.1245 170.337 42.5501H170.425V44.0001H173.078V37.0256C173.078 33.8501 170.631 32.0086 167.492 32.0086L167.433 31.9796ZM167.094 41.9121C166.195 41.9121 164.942 41.4626 164.942 40.3751C164.942 38.9251 166.504 38.4321 167.89 38.4321C168.765 38.4108 169.631 38.6211 170.396 39.0411C170.303 39.8285 169.923 40.5563 169.327 41.0895C168.731 41.6227 167.958 41.9253 167.153 41.9411L167.094 41.9121ZM182.748 32.4001L179.594 40.2591H179.505L176.233 32.4001H173.285L178.193 43.3911L175.393 49.4956H178.267L185.814 32.4001H182.748ZM157.984 44.0001H160.726V25.8751H157.984V44.0001Z" fill="white"/>
<path d="M15.7358 11.433C15.25 11.998 15.0022 12.7242 15.043 13.463V45.537C14.9928 46.2771 15.2418 47.0067 15.7358 47.567L15.839 47.683L34.1027 29.7175V29.2825L15.839 11.3315L15.7358 11.433Z" fill="url(#paint0_linear_3264_6655)"/>
<path d="M40.1466 35.7059L34.1029 29.7174V29.2824L40.1466 23.2939L40.2793 23.3809L47.517 27.4119C49.5807 28.5574 49.5807 30.4424 47.517 31.6024L40.3088 35.6334L40.1466 35.7059Z" fill="url(#paint1_linear_3264_6655)"/>
<path d="M40.3234 35.619L34.1028 29.5L15.7358 47.567C16.1524 47.9317 16.6855 48.1415 17.2429 48.1601C17.8002 48.1786 18.3465 48.0047 18.7872 47.6685L40.3234 35.619Z" fill="url(#paint2_linear_3264_6655)"/>
<path d="M40.3234 23.3809L18.7872 11.3459C18.3494 11.005 17.8035 10.8269 17.2454 10.8428C16.6873 10.8587 16.1528 11.0676 15.7358 11.4329L34.1028 29.4999L40.3234 23.3809Z" fill="url(#paint3_linear_3264_6655)"/>
<path opacity="0.2" d="M40.1465 35.4883L18.7872 47.4508C18.3626 47.766 17.8451 47.9365 17.3131 47.9365C16.7811 47.9365 16.2636 47.766 15.839 47.4508L15.7358 47.5523L15.839 47.6683C16.2636 47.9835 16.7811 48.154 17.3131 48.154C17.8451 48.154 18.3626 47.9835 18.7872 47.6683L40.3234 35.6188L40.1465 35.4883Z" fill="black"/>
<path opacity="0.12" d="M15.7359 47.3638C15.2624 46.7887 15.0304 46.0573 15.0873 45.3193V45.5368C15.0372 46.2769 15.2862 47.0065 15.7801 47.5668L15.8833 47.4653L15.7359 47.3638Z" fill="black"/>
<path opacity="0.12" d="M47.5169 31.385L40.1465 35.4885L40.2792 35.619L47.5169 31.588C47.9441 31.4103 48.3147 31.1226 48.5897 30.7551C48.8647 30.3877 49.0338 29.9541 49.0794 29.5C48.9872 29.9126 48.7978 30.2982 48.5264 30.6256C48.255 30.953 47.9092 31.2131 47.5169 31.385Z" fill="black"/>
<path opacity="0.25" d="M18.7871 11.549L47.5168 27.615C47.9092 27.7869 48.255 28.047 48.5264 28.3744C48.7978 28.7018 48.9872 29.0874 49.0793 29.5C49.0338 29.0459 48.8646 28.6124 48.5896 28.2449C48.3147 27.8774 47.9441 27.5897 47.5168 27.412L18.7871 11.346C16.7382 10.186 15.043 11.143 15.043 13.463V13.6805C15.0872 11.3605 16.7382 10.4035 18.7871 11.549Z" fill="white"/>
</g>
<defs>
<linearGradient id="paint0_linear_3264_6655" x1="32.4813" y1="13.1295" x2="8.15355" y2="37.8612" gradientUnits="userSpaceOnUse">
<stop stop-color="#00A0FF"/>
<stop offset="0.01" stop-color="#00A1FF"/>
<stop offset="0.26" stop-color="#00BEFF"/>
<stop offset="0.51" stop-color="#00D2FF"/>
<stop offset="0.76" stop-color="#00DFFF"/>
<stop offset="1" stop-color="#00E3FF"/>
</linearGradient>
<linearGradient id="paint1_linear_3264_6655" x1="50.2145" y1="29.4999" x2="14.5567" y2="29.4999" gradientUnits="userSpaceOnUse">
<stop stop-color="#FFE000"/>
<stop offset="0.41" stop-color="#FFBD00"/>
<stop offset="0.78" stop-color="#FFA500"/>
<stop offset="1" stop-color="#FF9C00"/>
</linearGradient>
<linearGradient id="paint2_linear_3264_6655" x1="36.9478" y1="32.835" x2="3.95" y2="66.3659" gradientUnits="userSpaceOnUse">
<stop stop-color="#FF3A44"/>
<stop offset="1" stop-color="#C31162"/>
</linearGradient>
<linearGradient id="paint3_linear_3264_6655" x1="11.1072" y1="0.760884" x2="25.8372" y2="15.7354" gradientUnits="userSpaceOnUse">
<stop stop-color="#32A071"/>
<stop offset="0.07" stop-color="#2DA771"/>
<stop offset="0.48" stop-color="#15CF74"/>
<stop offset="0.8" stop-color="#06E775"/>
<stop offset="1" stop-color="#00F076"/>
</linearGradient>
<clipPath id="clip0_3264_6655">
<rect width="199" height="58" fill="white" transform="translate(0.346558 0.5)"/>
</clipPath>
</defs>
</svg>
