<svg width="1047" height="284" viewBox="0 0 1047 284" fill="none" xmlns="http://www.w3.org/2000/svg">
<path fill-rule="evenodd" clip-rule="evenodd" d="M177.553 77.4801C179.399 78.1914 180.448 80.1451 180.02 82.0766L166.104 144.984C165.561 147.439 162.914 148.79 160.608 147.79L120.127 130.25C118.397 129.5 117.426 127.645 117.794 125.797L130.082 64.2033C130.568 61.7701 133.128 60.3613 135.443 61.2534L177.553 77.4801ZM133.79 45.6208L193.811 68.7495C195.656 69.4608 196.705 71.4145 196.278 73.3459L178.129 155.383L176.965 160.647L165.85 213.442C165.053 217.225 161.341 219.646 157.558 218.85C153.775 218.053 151.354 214.341 152.15 210.558L162.015 163.699C162.021 163.67 162.006 163.64 161.979 163.628L118.471 144.776C116.08 143.74 113.353 145.231 112.933 147.803L110.841 160.634L109.312 170.01C108.918 172.431 106.457 173.93 104.125 173.17L95.1108 170.232L14.7744 144.054L5.77595 141.121C2.71089 140.123 2.02589 136.094 4.58858 134.138L12.0521 128.443L41.8519 105.701C43.4061 104.515 43.8752 102.379 42.9611 100.651L23.0085 62.9267L18.2192 53.8716C16.5385 50.6939 19.5765 47.0845 22.9944 48.1982L32.6448 51.3429L108.872 76.1825C111.15 76.9249 113.566 75.5116 114.034 73.162L117.769 54.4426L119.618 45.1754C120.103 42.7423 122.664 41.3334 124.979 42.2255L133.79 45.6208ZM35.5391 136.096C32.4741 135.097 31.7891 131.069 34.3517 129.113L53.0397 114.851L59.7473 109.733C61.3015 108.547 61.7706 106.411 60.8565 104.683L56.861 97.1282L46.674 77.8678C44.9932 74.6901 48.0313 71.0807 51.4491 72.1944L104.826 89.5879C106.702 90.1992 107.852 92.0873 107.535 94.0347L98.1412 151.646C97.7465 154.067 95.2861 155.565 92.9541 154.806L35.5391 136.096Z" fill="white"/>
<path d="M186.535 212L215.894 84.84H255.912L256.099 177.405L298.361 84.84H339.127L309.768 212H283.962L308.272 107.28H307.15L261.709 206.39H237.399L237.212 107.28H236.277L212.341 212H186.535ZM362.348 214.244C353.248 214.244 346.578 211.19 342.339 205.081C338.101 198.848 335.981 190.557 335.981 180.21C335.981 165.873 339.597 152.098 346.827 138.883C350.443 132.276 355.429 126.853 361.787 122.614C368.145 118.375 375.376 116.256 383.479 116.256C392.081 116.256 404.797 117.752 421.627 120.744L430.229 122.427L416.204 182.828L411.155 211.439L386.284 212.374C387.406 204.769 388.217 199.907 388.715 197.788C383.604 204.645 377.62 209.507 370.763 212.374C367.896 213.621 365.091 214.244 362.348 214.244ZM384.227 137.574C379.49 137.574 375.314 140.005 371.698 144.867C364.842 154.092 361.413 165.873 361.413 180.21C361.413 184.573 362.099 187.815 363.47 189.934C364.842 191.929 366.961 192.926 369.828 192.926C372.82 192.926 376.124 191.555 379.739 188.812C383.479 186.069 386.596 183.327 389.089 180.584L392.829 176.283L401.431 140.192C393.203 138.447 387.469 137.574 384.227 137.574ZM430.102 212L451.607 118.5H476.478L473.112 131.964C476.852 128.598 481.652 125.294 487.511 122.053C493.371 118.687 498.357 116.755 502.471 116.256L495.178 142.436C489.194 144.306 481.901 147.173 473.299 151.038L468.811 153.095L455.16 212H430.102ZM546.413 116.256C553.893 116.256 561.81 117.752 570.162 120.744L574.276 122.053L567.918 140.379C558.319 138.758 550.777 137.948 545.291 137.948C538.185 137.948 532.7 141.875 528.835 149.729C524.971 157.458 523.038 166.559 523.038 177.031C523.038 187.378 527.776 192.552 537.25 192.552L557.259 191.056L555.202 209.569C546.102 212.686 537.001 214.244 527.9 214.244C518.8 214.244 511.444 211.377 505.834 205.642C500.349 199.907 497.606 191.929 497.606 181.706C497.606 162.632 501.783 146.986 510.135 134.769C518.613 122.427 530.705 116.256 546.413 116.256ZM637.142 116.256C652.351 116.256 659.956 125.045 659.956 142.623C659.956 147.111 658.647 154.965 656.029 166.185L645.557 212H620.499L630.597 168.055C632.841 158.705 633.963 152.222 633.963 148.607C633.963 144.867 633.464 142.187 632.467 140.566C631.594 138.821 629.974 137.948 627.605 137.948C623.366 137.948 618.068 140.753 611.71 146.363L608.531 149.168L594.132 212H569.074L599.181 81.1H624.239L613.767 127.289C616.51 124.546 620.187 122.053 624.8 119.809C629.413 117.44 633.527 116.256 637.142 116.256ZM694.868 182.641C694.868 185.758 696.115 188.251 698.608 190.121C701.226 191.991 704.467 192.926 708.332 192.926C716.934 192.926 725.723 192.303 734.699 191.056L739.561 190.495L736.756 209.008C725.162 212.499 713.693 214.244 702.348 214.244C691.003 214.244 682.713 211.688 677.477 206.577C672.366 201.466 669.81 193.986 669.81 184.137C669.81 174.288 670.807 165.499 672.802 157.77C674.797 150.041 677.726 143.059 681.591 136.826C685.58 130.593 690.941 125.668 697.673 122.053C704.53 118.313 712.321 116.443 721.048 116.443C742.865 116.443 753.773 125.731 753.773 144.306C753.773 156.149 749.784 164.315 741.805 168.803C733.826 173.291 720.549 175.535 701.974 175.535H695.429C695.055 177.031 694.868 179.4 694.868 182.641ZM705.901 157.022C714.503 157.022 720.487 156.087 723.853 154.217C727.344 152.347 729.089 149.168 729.089 144.68C729.089 139.319 725.972 136.639 719.739 136.639C708.644 136.639 701.475 143.433 698.234 157.022H705.901ZM784.925 214.244C775.824 214.244 769.154 211.19 764.916 205.081C760.677 198.848 758.558 190.557 758.558 180.21C758.558 165.873 762.173 152.098 769.404 138.883C773.019 132.276 778.006 126.853 784.364 122.614C790.722 118.375 797.952 116.256 806.056 116.256C814.658 116.256 827.374 117.752 844.204 120.744L852.806 122.427L838.781 182.828L833.732 211.439L808.861 212.374C809.983 204.769 810.793 199.907 811.292 197.788C806.18 204.645 800.196 209.507 793.34 212.374C790.472 213.621 787.667 214.244 784.925 214.244ZM806.804 137.574C802.066 137.574 797.89 140.005 794.275 144.867C787.418 154.092 783.99 165.873 783.99 180.21C783.99 184.573 784.675 187.815 786.047 189.934C787.418 191.929 789.537 192.926 792.405 192.926C795.397 192.926 798.7 191.555 802.316 188.812C806.056 186.069 809.172 183.327 811.666 180.584L815.406 176.283L824.008 140.192C815.78 138.447 810.045 137.574 806.804 137.574ZM920.56 116.256C929.66 116.256 936.455 119.186 940.943 125.045C945.431 130.78 947.675 138.821 947.675 149.168C947.675 159.391 945.929 169.426 942.439 179.275C939.073 188.999 933.712 197.227 926.357 203.959C919.001 210.691 910.399 214.057 900.551 214.057C894.941 214.057 888.645 213.122 881.664 211.252L877.924 210.13L868.387 251.27H843.703L874.184 118.5H898.681L896.811 128.224C899.927 125.107 903.73 122.365 908.218 119.996C912.83 117.503 916.944 116.256 920.56 116.256ZM912.706 137.574C910.711 137.574 907.906 138.696 904.291 140.94C900.8 143.184 897.808 145.428 895.315 147.672L891.575 151.038L882.599 190.121C889.829 191.866 895.689 192.739 900.177 192.739C904.789 192.739 908.779 190.308 912.145 185.446C915.635 180.459 918.191 174.725 919.812 168.242C921.432 161.759 922.243 155.526 922.243 149.542C922.243 141.563 919.064 137.574 912.706 137.574ZM1019.17 116.256C1028.27 116.256 1035.07 119.186 1039.56 125.045C1044.04 130.78 1046.29 138.821 1046.29 149.168C1046.29 159.391 1044.54 169.426 1041.05 179.275C1037.69 188.999 1032.33 197.227 1024.97 203.959C1017.61 210.691 1009.01 214.057 999.164 214.057C993.554 214.057 987.258 213.122 980.277 211.252L976.537 210.13L967 251.27H942.316L972.797 118.5H997.294L995.424 128.224C998.541 125.107 1002.34 122.365 1006.83 119.996C1011.44 117.503 1015.56 116.256 1019.17 116.256ZM1011.32 137.574C1009.32 137.574 1006.52 138.696 1002.9 140.94C999.413 143.184 996.421 145.428 993.928 147.672L990.188 151.038L981.212 190.121C988.443 191.866 994.302 192.739 998.79 192.739C1003.4 192.739 1007.39 190.308 1010.76 185.446C1014.25 180.459 1016.8 174.725 1018.42 168.242C1020.05 161.759 1020.86 155.526 1020.86 149.542C1020.86 141.563 1017.68 137.574 1011.32 137.574Z" fill="white"/>
</svg>
