<svg width="205" height="69" viewBox="0 0 205 69" fill="none" xmlns="http://www.w3.org/2000/svg">
<g clip-path="url(#clip0_3081_33616)">
<path d="M188.675 0.499733H16.3341C15.7059 0.499733 15.0853 0.499733 14.4587 0.503133C13.9342 0.506533 13.414 0.51641 12.8844 0.524723C11.7341 0.538156 10.5865 0.638582 9.4515 0.82513C8.31814 1.01574 7.22028 1.37509 6.19505 1.89103C5.17108 2.41133 4.23545 3.08742 3.4221 3.89475C2.60447 4.69982 1.92292 5.63036 1.40365 6.6506C0.882947 7.66882 0.521888 8.75993 0.332947 9.88625C0.142208 11.0111 0.0395705 12.149 0.0259539 13.2896C0.0100561 13.8109 0.0083772 14.3338 0 14.8551V54.1494C0.0083772 54.6772 0.0100561 55.1886 0.0259539 55.7166C0.0395747 56.8572 0.142213 57.995 0.332947 59.1198C0.521367 60.2468 0.882447 61.3385 1.40365 62.3571C1.92269 63.3741 2.60433 64.3008 3.4221 65.1014C4.23236 65.9124 5.1686 66.5889 6.19505 67.1052C7.22027 67.6225 8.31801 67.984 9.4515 68.1776C10.5867 68.3626 11.7342 68.4631 12.8844 68.4781C13.414 68.4897 13.9342 68.4963 14.4587 68.4963C15.0852 68.4997 15.706 68.4997 16.3341 68.4997H188.675C189.291 68.4997 189.916 68.4997 190.532 68.4963C191.054 68.4963 191.589 68.4897 192.111 68.4781C193.26 68.4639 194.405 68.3634 195.538 68.1776C196.675 67.9827 197.777 67.6213 198.807 67.1052C199.832 66.5886 200.768 65.9121 201.577 65.1014C202.393 64.2977 203.076 63.3716 203.601 62.3571C204.119 61.3378 204.476 60.2461 204.662 59.1198C204.853 57.9948 204.959 56.8573 204.98 55.7166C204.987 55.1886 204.987 54.6772 204.987 54.1494C205 53.5317 205 52.9175 205 52.2899V16.7112C205 16.0886 205 15.471 204.987 14.8551C204.987 14.3338 204.987 13.8109 204.98 13.2896C204.959 12.1489 204.853 11.0112 204.662 9.88618C204.476 8.76051 204.118 7.66949 203.601 6.65054C202.544 4.60557 200.867 2.94098 198.807 1.89088C197.777 1.3762 196.675 1.01694 195.538 0.824977C194.405 0.637607 193.26 0.537146 192.111 0.524485C191.589 0.516189 191.054 0.506227 190.532 0.502912C189.916 0.499512 189.291 0.499512 188.675 0.499512V0.499733Z" fill="#A6A6A6"/>
<path d="M14.4671 67.0121C13.9451 67.0121 13.4358 67.0054 12.9179 66.9939C11.8451 66.98 10.7748 66.8873 9.71584 66.7166C8.72838 66.5478 7.77179 66.2339 6.87763 65.7852C5.99167 65.3401 5.18361 64.7566 4.48439 64.0569C3.77505 63.3655 3.1845 62.5636 2.73613 61.6829C2.28281 60.7965 1.96909 59.8464 1.8059 58.8657C1.62966 57.8119 1.5343 56.7463 1.52066 55.6782C1.5098 55.3196 1.49558 54.1259 1.49558 54.1259V14.8549C1.49558 14.8549 1.51072 13.6795 1.52075 13.3342C1.53381 12.2678 1.62861 11.2039 1.80432 10.1517C1.96782 9.16829 2.28178 8.21543 2.73534 7.32613C3.18206 6.44606 3.76934 5.64352 4.4744 4.94962C5.17868 4.24912 5.98933 3.66259 6.87679 3.21142C7.7689 2.76412 8.72368 2.45241 9.70914 2.28672C10.7716 2.11428 11.8456 2.02105 12.9221 2.00782L14.4679 1.98706H190.524L192.088 2.00865C193.155 2.02123 194.219 2.11363 195.272 2.28505C196.267 2.45282 197.232 2.76671 198.134 3.2164C199.912 4.12564 201.359 5.56414 202.271 7.33028C202.718 8.21344 203.027 9.15852 203.188 10.1334C203.366 11.1942 203.466 12.2665 203.486 13.3417C203.491 13.8231 203.491 14.3403 203.491 14.8549C203.504 15.4924 203.504 16.0992 203.504 16.711V52.2897C203.504 52.9073 203.504 53.51 203.491 54.1176C203.491 54.6704 203.491 55.1768 203.484 55.698C203.464 56.754 203.366 57.8072 203.191 58.849C203.032 59.8368 202.72 60.7943 202.266 61.688C201.815 62.5591 201.228 63.3541 200.527 64.0437C199.827 64.7471 199.017 65.3341 198.129 65.7819C197.229 66.2341 196.266 66.5492 195.272 66.7166C194.213 66.8882 193.142 66.9809 192.069 66.9939C191.568 67.0054 191.042 67.0121 190.532 67.0121L188.675 67.0155L14.4671 67.0121Z" fill="black"/>
<path d="M42.4323 35.011C42.4507 33.592 42.8305 32.2008 43.5364 30.9667C44.2422 29.7325 45.2512 28.6956 46.4694 27.9525C45.6955 26.8557 44.6746 25.9531 43.4877 25.3163C42.3008 24.6796 40.9806 24.3263 39.632 24.2844C36.7553 23.9848 33.9664 25.9926 32.5004 25.9926C31.0061 25.9926 28.7491 24.3141 26.3186 24.3638C24.7465 24.4142 23.2144 24.8678 21.8715 25.6805C20.5286 26.4932 19.4208 27.6372 18.6559 29.0011C15.3427 34.6935 17.8141 43.0592 20.9878 47.6605C22.5757 49.9136 24.4315 52.4303 26.8598 52.3411C29.236 52.2433 30.1235 50.8375 32.9918 50.8375C35.8334 50.8375 36.6661 52.3411 39.1436 52.2843C41.6934 52.2433 43.2999 50.0212 44.8321 47.7468C45.973 46.1414 46.8509 44.3671 47.4333 42.4895C45.952 41.8678 44.6878 40.8271 43.7985 39.4972C42.9092 38.1673 42.434 36.607 42.4323 35.011Z" fill="white"/>
<path d="M37.7527 21.2585C39.1429 19.6024 39.8278 17.4737 39.662 15.3245C37.538 15.5458 35.576 16.5532 34.167 18.1458C33.4781 18.9238 32.9504 19.829 32.6142 20.8095C32.278 21.79 32.1399 22.8266 32.2077 23.8602C33.27 23.871 34.321 23.6425 35.2815 23.1919C36.242 22.7412 37.0869 22.0802 37.7527 21.2585Z" fill="white"/>
<path d="M72.4692 46.6375H64.3603L62.413 52.3435H58.9784L66.659 31.2329H70.2274L77.9081 52.3435H74.4149L72.4692 46.6375ZM65.2002 44.0045H71.6278L68.4592 34.7442H68.3705L65.2002 44.0045Z" fill="white"/>
<path d="M94.4957 44.6487C94.4957 49.4316 91.9159 52.5046 88.0229 52.5046C87.0367 52.5557 86.056 52.3303 85.1929 51.8541C84.3298 51.3779 83.6194 50.6701 83.1428 49.8118H83.0692V57.4352H79.8855V36.9522H82.9672V39.5122H83.0257C83.5242 38.658 84.2466 37.9539 85.1163 37.4747C85.9859 36.9956 86.9702 36.7594 87.9644 36.7912C91.9008 36.7912 94.4957 39.8791 94.4957 44.6487ZM91.2233 44.6487C91.2233 41.5326 89.6005 39.484 87.1245 39.484C84.692 39.484 83.0558 41.5757 83.0558 44.6487C83.0558 47.7499 84.692 49.8267 87.1245 49.8267C89.6005 49.8267 91.2233 47.793 91.2233 44.6487Z" fill="white"/>
<path d="M111.567 44.6487C111.567 49.4316 108.987 52.5045 105.094 52.5045C104.108 52.5557 103.127 52.3303 102.264 51.8541C101.401 51.3778 100.69 50.67 100.214 49.8117H100.14V57.4352H96.9565V36.9522H100.038V39.5122H100.097C100.595 38.658 101.318 37.9538 102.187 37.4747C103.057 36.9956 104.041 36.7593 105.035 36.7912C108.972 36.7912 111.567 39.879 111.567 44.6487ZM108.294 44.6487C108.294 41.5326 106.672 39.4839 104.196 39.4839C101.763 39.4839 100.127 41.5757 100.127 44.6487C100.127 47.7499 101.763 49.8267 104.196 49.8267C106.672 49.8267 108.294 47.793 108.294 44.6487H108.294Z" fill="white"/>
<path d="M122.849 46.4615C123.085 48.555 125.135 49.9295 127.935 49.9295C130.619 49.9295 132.549 48.5549 132.549 46.6673C132.549 45.0287 131.385 44.0476 128.628 43.3752L125.871 42.7161C121.964 41.7798 120.151 39.9669 120.151 37.0251C120.151 33.3827 123.35 30.8809 127.892 30.8809C132.387 30.8809 135.469 33.3827 135.572 37.0251H132.358C132.166 34.9184 130.411 33.6467 127.846 33.6467C125.282 33.6467 123.527 34.9333 123.527 36.806C123.527 38.2984 124.648 39.1767 127.39 39.849L129.734 40.4201C134.098 41.4444 135.912 43.1843 135.912 46.2721C135.912 50.2216 132.742 52.6953 127.699 52.6953C122.981 52.6953 119.796 50.2797 119.59 46.4614L122.849 46.4615Z" fill="white"/>
<path d="M142.783 33.3101V36.9524H145.732V39.4543H142.783V47.9394C142.783 49.2575 143.373 49.8718 144.67 49.8718C145.02 49.8657 145.37 49.8413 145.717 49.7987V52.2856C145.134 52.3937 144.542 52.4426 143.949 52.4317C140.809 52.4317 139.584 51.2613 139.584 48.2763V39.4543H137.329V36.9524H139.584V33.3101H142.783Z" fill="white"/>
<path d="M147.44 44.6484C147.44 39.8058 150.315 36.7627 154.797 36.7627C159.293 36.7627 162.154 39.8057 162.154 44.6484C162.154 49.5044 159.309 52.5342 154.797 52.5342C150.286 52.5342 147.44 49.5044 147.44 44.6484ZM158.91 44.6484C158.91 41.3265 157.376 39.3658 154.797 39.3658C152.217 39.3658 150.684 41.3414 150.684 44.6484C150.684 47.9837 152.217 49.9294 154.797 49.9294C157.376 49.9294 158.91 47.9837 158.91 44.6484H158.91Z" fill="white"/>
<path d="M164.779 36.9521H167.816V39.5718H167.889C168.095 38.7536 168.578 38.0305 169.257 37.5241C169.937 37.0177 170.771 36.7588 171.62 36.791C171.987 36.7897 172.353 36.8293 172.711 36.9089V39.864C172.248 39.7235 171.764 39.659 171.28 39.673C170.818 39.6544 170.357 39.7354 169.929 39.9103C169.501 40.0852 169.116 40.3499 168.801 40.6863C168.486 41.0227 168.247 41.4229 168.103 41.8592C167.958 42.2955 167.91 42.7578 167.963 43.2141V52.3434H164.779L164.779 36.9521Z" fill="white"/>
<path d="M187.389 47.8227C186.961 50.6167 184.219 52.5342 180.711 52.5342C176.199 52.5342 173.398 49.5343 173.398 44.7215C173.398 39.8938 176.214 36.7627 180.577 36.7627C184.868 36.7627 187.567 39.6879 187.567 44.3546V45.437H176.612V45.6279C176.562 46.1944 176.633 46.765 176.822 47.3019C177.011 47.8389 177.312 48.3298 177.707 48.7421C178.101 49.1544 178.58 49.4787 179.111 49.6935C179.641 49.9082 180.212 50.0084 180.785 49.9875C181.537 50.0574 182.292 49.8845 182.937 49.4945C183.583 49.1044 184.084 48.5181 184.366 47.8226L187.389 47.8227ZM176.627 43.229H184.381C184.41 42.7197 184.332 42.21 184.153 41.732C183.974 41.2539 183.697 40.8178 183.339 40.451C182.982 40.0842 182.552 39.7946 182.077 39.6004C181.602 39.4063 181.091 39.3117 180.577 39.3227C180.059 39.3196 179.545 39.4184 179.065 39.6135C178.585 39.8086 178.149 40.096 177.782 40.4591C177.415 40.8223 177.124 41.2541 176.925 41.7295C176.727 42.2049 176.626 42.7145 176.627 43.229V43.229Z" fill="white"/>
<path d="M64.8011 15.3426C65.4686 15.295 66.1384 15.3951 66.7621 15.6355C67.3859 15.876 67.9481 16.2508 68.4083 16.7329C68.8684 17.2151 69.2149 17.7926 69.4229 18.4238C69.6309 19.0549 69.6951 19.724 69.611 20.3828C69.611 23.6234 67.846 25.4862 64.8011 25.4862H61.1089V15.3426H64.8011ZM62.6965 24.0517H64.6238C65.1007 24.08 65.578 24.0024 66.021 23.8245C66.4639 23.6467 66.8612 23.3731 67.1842 23.0236C67.5071 22.6741 67.7474 22.2576 67.8876 21.8044C68.0279 21.3511 68.0645 20.8725 67.9948 20.4035C68.0594 19.9362 68.0191 19.4606 67.8767 19.0107C67.7343 18.5608 67.4934 18.1477 67.1712 17.801C66.849 17.4543 66.4536 17.1826 66.0132 17.0054C65.5728 16.8282 65.0983 16.7499 64.6238 16.776H62.6965V24.0517Z" fill="white"/>
<path d="M71.4044 21.6549C71.3559 21.1519 71.4139 20.6443 71.5746 20.1648C71.7354 19.6853 71.9954 19.2444 72.3379 18.8704C72.6804 18.4965 73.0979 18.1977 73.5637 17.9932C74.0294 17.7887 74.533 17.6831 75.0423 17.6831C75.5515 17.6831 76.0552 17.7887 76.5209 17.9932C76.9866 18.1977 77.4041 18.4965 77.7466 18.8704C78.0892 19.2444 78.3492 19.6853 78.5099 20.1648C78.6707 20.6443 78.7287 21.1519 78.6802 21.6549C78.7296 22.1585 78.6723 22.6668 78.5119 23.1471C78.3516 23.6274 78.0918 24.0691 77.7492 24.4438C77.4066 24.8185 76.9887 25.1179 76.5226 25.3228C76.0564 25.5277 75.5521 25.6336 75.0423 25.6336C74.5324 25.6336 74.0282 25.5277 73.562 25.3228C73.0958 25.1179 72.678 24.8185 72.3354 24.4438C71.9928 24.0691 71.7329 23.6274 71.5726 23.1471C71.4123 22.6668 71.355 22.1585 71.4044 21.6549ZM77.1142 21.6549C77.1142 19.9956 76.3631 19.0253 75.0448 19.0253C73.7215 19.0253 72.977 19.9956 72.977 21.655C72.977 23.3276 73.7215 24.2905 75.0448 24.2905C76.3631 24.2904 77.1143 23.3209 77.1143 21.6549H77.1142Z" fill="white"/>
<path d="M88.3517 25.4858H86.7724L85.178 19.8479H85.0576L83.4699 25.4858H81.9057L79.7793 17.8308H81.3235L82.7054 23.672H82.8191L84.4051 17.8308H85.8656L87.4516 23.672H87.5721L88.9472 17.8308H90.4696L88.3517 25.4858Z" fill="white"/>
<path d="M92.2581 17.8311H93.7236V19.0471H93.8374C94.0303 18.6104 94.3558 18.2442 94.7685 17.9998C95.1811 17.7553 95.6604 17.6447 96.1394 17.6833C96.5147 17.6553 96.8916 17.7115 97.2421 17.8476C97.5926 17.9838 97.9077 18.1965 98.1642 18.4699C98.4206 18.7433 98.6117 19.0705 98.7234 19.4272C98.8351 19.7839 98.8645 20.161 98.8094 20.5305V25.486H97.287V20.9098C97.287 19.6797 96.7483 19.0679 95.6224 19.0679C95.3676 19.0561 95.1132 19.0992 94.8767 19.1941C94.6402 19.289 94.4271 19.4335 94.2522 19.6178C94.0772 19.802 93.9445 20.0216 93.8631 20.2616C93.7816 20.5015 93.7535 20.756 93.7805 21.0078V25.4861H92.2581L92.2581 17.8311Z" fill="white"/>
<path d="M101.235 14.8425H102.758V25.4858H101.235V14.8425Z" fill="white"/>
<path d="M104.874 21.6546C104.826 21.1515 104.884 20.6439 105.044 20.1644C105.205 19.6848 105.465 19.2439 105.808 18.87C106.15 18.496 106.568 18.1972 107.034 17.9927C107.499 17.7882 108.003 17.6826 108.512 17.6826C109.022 17.6826 109.525 17.7882 109.991 17.9927C110.457 18.1972 110.874 18.496 111.217 18.87C111.559 19.2439 111.819 19.6848 111.98 20.1644C112.141 20.6439 112.199 21.1515 112.151 21.6546C112.2 22.1582 112.143 22.6665 111.982 23.1468C111.822 23.6271 111.562 24.0687 111.219 24.4434C110.877 24.8181 110.459 25.1175 109.993 25.3224C109.526 25.5273 109.022 25.6332 108.512 25.6332C108.002 25.6332 107.498 25.5273 107.032 25.3224C106.566 25.1175 106.148 24.8181 105.805 24.4434C105.463 24.0687 105.203 23.6271 105.042 23.1468C104.882 22.6665 104.825 22.1582 104.874 21.6546ZM110.584 21.6546C110.584 19.9953 109.833 19.0249 108.514 19.0249C107.191 19.0249 106.447 19.9953 106.447 21.6546C106.447 23.3272 107.191 24.2901 108.514 24.2901C109.833 24.2901 110.584 23.3206 110.584 21.6546H110.584Z" fill="white"/>
<path d="M113.753 23.321C113.753 21.9431 114.787 21.1487 116.622 21.0358L118.712 20.9163V20.2555C118.712 19.447 118.173 18.9905 117.133 18.9905C116.283 18.9905 115.694 19.3001 115.525 19.8413H114.051C114.207 18.5265 115.453 17.6831 117.203 17.6831C119.137 17.6831 120.228 18.6385 120.228 20.2555V25.4858H118.762V24.4101H118.642C118.397 24.7959 118.054 25.1105 117.647 25.3217C117.24 25.5328 116.784 25.633 116.325 25.612C116.001 25.6454 115.674 25.6111 115.364 25.5113C115.054 25.4115 114.769 25.2484 114.527 25.0326C114.285 24.8168 114.091 24.5529 113.957 24.2581C113.824 23.9633 113.755 23.6441 113.753 23.321ZM118.712 22.6669V22.0269L116.828 22.1464C115.766 22.217 115.284 22.5756 115.284 23.2504C115.284 23.9394 115.886 24.3403 116.715 24.3403C116.957 24.3647 117.202 24.3404 117.435 24.2688C117.668 24.1973 117.884 24.0799 118.071 23.9238C118.257 23.7677 118.41 23.5759 118.52 23.36C118.63 23.1441 118.696 22.9083 118.712 22.6669Z" fill="white"/>
<path d="M122.229 21.655C122.229 19.2362 123.482 17.7038 125.431 17.7038C125.913 17.6818 126.391 17.7964 126.81 18.0342C127.229 18.272 127.571 18.6232 127.796 19.0468H127.91V14.8425H129.432V25.4858H127.974V24.2764H127.853C127.611 24.6971 127.257 25.0439 126.83 25.2794C126.403 25.5148 125.919 25.6298 125.431 25.6119C123.468 25.612 122.229 24.0797 122.229 21.655ZM123.801 21.655C123.801 23.2786 124.573 24.2556 125.862 24.2556C127.146 24.2556 127.939 23.2645 127.939 21.6617C127.939 20.0662 127.137 19.061 125.862 19.061C124.581 19.061 123.801 20.0446 123.801 21.655H123.801Z" fill="white"/>
<path d="M135.731 21.6549C135.683 21.1519 135.741 20.6443 135.901 20.1648C136.062 19.6853 136.322 19.2444 136.665 18.8704C137.007 18.4965 137.425 18.1977 137.89 17.9932C138.356 17.7887 138.86 17.6831 139.369 17.6831C139.878 17.6831 140.382 17.7887 140.848 17.9932C141.313 18.1977 141.731 18.4965 142.073 18.8704C142.416 19.2444 142.676 19.6853 142.837 20.1648C142.997 20.6443 143.055 21.1519 143.007 21.6549C143.056 22.1585 142.999 22.6668 142.839 23.1471C142.678 23.6274 142.419 24.0691 142.076 24.4438C141.733 24.8185 141.316 25.1179 140.849 25.3228C140.383 25.5277 139.879 25.6336 139.369 25.6336C138.859 25.6336 138.355 25.5277 137.889 25.3228C137.423 25.1179 137.005 24.8185 136.662 24.4438C136.32 24.0691 136.06 23.6274 135.899 23.1471C135.739 22.6668 135.682 22.1585 135.731 21.6549ZM141.441 21.6549C141.441 19.9956 140.69 19.0253 139.372 19.0253C138.048 19.0253 137.304 19.9956 137.304 21.655C137.304 23.3276 138.048 24.2905 139.372 24.2905C140.69 24.2904 141.441 23.3209 141.441 21.6549Z" fill="white"/>
<path d="M145.05 17.8311H146.515V19.0471H146.629C146.822 18.6104 147.148 18.2442 147.56 17.9998C147.973 17.7553 148.452 17.6447 148.931 17.6833C149.306 17.6553 149.683 17.7115 150.034 17.8476C150.384 17.9838 150.699 18.1965 150.956 18.4699C151.212 18.7433 151.403 19.0705 151.515 19.4272C151.627 19.7839 151.656 20.161 151.601 20.5305V25.486H150.079V20.9098C150.079 19.6797 149.54 19.0679 148.414 19.0679C148.159 19.0561 147.905 19.0992 147.668 19.1941C147.432 19.289 147.219 19.4335 147.044 19.6178C146.869 19.802 146.736 20.0216 146.655 20.2616C146.573 20.5015 146.545 20.756 146.572 21.0078V25.4861H145.05V17.8311Z" fill="white"/>
<path d="M160.204 15.9248V17.8655H161.875V19.138H160.204V23.0743C160.204 23.8761 160.536 24.2272 161.294 24.2272C161.488 24.2266 161.682 24.215 161.875 24.1924V25.4508C161.601 25.4993 161.324 25.5251 161.047 25.528C159.354 25.528 158.679 24.9369 158.679 23.4611V19.138H157.455V17.8655H158.679V15.9248H160.204Z" fill="white"/>
<path d="M163.954 14.8425H165.463V19.061H165.584C165.786 18.6201 166.121 18.2519 166.542 18.0066C166.962 17.7612 167.449 17.6505 167.936 17.6897C168.309 17.6695 168.683 17.7314 169.029 17.8709C169.376 18.0103 169.687 18.224 169.941 18.4966C170.194 18.7691 170.384 19.0939 170.497 19.4478C170.61 19.8016 170.642 20.1757 170.593 20.5435V25.4858H169.069V20.9162C169.069 19.6935 168.495 19.0743 167.419 19.0743C167.157 19.053 166.894 19.0887 166.648 19.1788C166.402 19.269 166.178 19.4115 165.993 19.5964C165.808 19.7813 165.666 20.004 165.577 20.249C165.488 20.4941 165.454 20.7555 165.477 21.015V25.4858H163.954L163.954 14.8425Z" fill="white"/>
<path d="M179.47 23.4186C179.263 24.1182 178.815 24.7234 178.204 25.1282C177.592 25.5331 176.857 25.7118 176.127 25.6332C175.619 25.6465 175.114 25.5499 174.647 25.3501C174.18 25.1503 173.763 24.8521 173.424 24.4762C173.084 24.1003 172.832 23.6556 172.683 23.1731C172.535 22.6906 172.494 22.1818 172.563 21.6821C172.496 21.1808 172.537 20.6709 172.686 20.1869C172.834 19.703 173.085 19.2563 173.422 18.8771C173.76 18.4978 174.175 18.1949 174.64 17.9889C175.106 17.7828 175.611 17.6784 176.12 17.6827C178.267 17.6827 179.562 19.1379 179.562 21.5417V22.0689H174.114V22.1536C174.09 22.4345 174.126 22.7172 174.219 22.9837C174.312 23.2502 174.459 23.4945 174.653 23.701C174.846 23.9074 175.081 24.0715 175.342 24.1827C175.603 24.2939 175.885 24.3497 176.169 24.3466C176.533 24.3899 176.902 24.3249 177.229 24.1596C177.555 23.9944 177.825 23.7364 178.004 23.4185L179.47 23.4186ZM174.114 20.9516H178.011C178.03 20.6947 177.995 20.4366 177.907 20.194C177.82 19.9514 177.683 19.7296 177.504 19.5428C177.325 19.356 177.109 19.2085 176.869 19.1096C176.629 19.0107 176.371 18.9626 176.112 18.9685C175.849 18.9653 175.587 19.0143 175.343 19.1128C175.099 19.2113 174.878 19.3573 174.692 19.5421C174.506 19.7269 174.359 19.9468 174.259 20.1889C174.16 20.431 174.111 20.6903 174.114 20.9516H174.114Z" fill="white"/>
</g>
<defs>
<clipPath id="clip0_3081_33616">
<rect width="205" height="68" fill="white" transform="translate(0 0.5)"/>
</clipPath>
</defs>
</svg>
