<svg width="196" height="59" viewBox="0 0 196 59" fill="none" xmlns="http://www.w3.org/2000/svg">
<g clip-path="url(#clip0_3264_6656)">
<path d="M180.392 0.500188H15.6169C15.0163 0.500188 14.4229 0.500189 13.8238 0.503089C13.3224 0.505989 12.8249 0.514413 12.3187 0.521503C11.2188 0.532961 10.1216 0.618619 9.03644 0.777733C7.95283 0.940311 6.90317 1.24682 5.92295 1.68688C4.94393 2.13067 4.04938 2.70733 3.27173 3.39594C2.49001 4.08261 1.83838 4.87631 1.34191 5.74652C0.844062 6.615 0.498854 7.54565 0.318207 8.50633C0.135843 9.46581 0.0377112 10.4363 0.0246924 11.4092C0.00949251 11.8538 0.00788735 12.2999 -0.00012207 12.7445V46.2602C0.00788735 46.7104 0.00949251 47.1465 0.0246924 47.5969C0.0377152 48.5698 0.135847 49.5402 0.318207 50.4997C0.498355 51.4609 0.843583 52.3921 1.34191 53.2609C1.83816 54.1283 2.48988 54.9188 3.27173 55.6016C4.04643 56.2933 4.94156 56.8704 5.92295 57.3107C6.90316 57.752 7.95271 58.0603 9.03644 58.2254C10.1218 58.3833 11.2189 58.4689 12.3187 58.4818C12.8249 58.4916 13.3224 58.4973 13.8238 58.4973C14.4228 58.5002 15.0163 58.5002 15.6169 58.5002H180.392C180.98 58.5002 181.579 58.5002 182.167 58.4973C182.666 58.4973 183.178 58.4916 183.677 58.4818C184.775 58.4696 185.87 58.3839 186.953 58.2254C188.04 58.0592 189.094 57.7509 190.078 57.3107C191.059 56.8701 191.953 56.2931 192.727 55.6016C193.507 54.9161 194.16 54.1262 194.663 53.2609C195.157 52.3915 195.499 51.4604 195.677 50.4997C195.859 49.5401 195.961 48.5698 195.981 47.5969C195.987 47.1465 195.987 46.7104 195.987 46.2602C196 45.7334 196 45.2095 196 44.6741V14.3276C196 13.7966 196 13.2698 195.987 12.7445C195.987 12.2999 195.987 11.8538 195.981 11.4092C195.961 10.4362 195.859 9.46588 195.677 8.50628C195.499 7.54615 195.157 6.61557 194.663 5.74646C193.652 4.00222 192.048 2.58243 190.078 1.68675C189.094 1.24776 188.04 0.941337 186.953 0.777602C185.87 0.617788 184.775 0.5321 183.677 0.5213C183.178 0.514224 182.666 0.505727 182.167 0.5029C181.579 0.5 180.98 0.5 180.392 0.5V0.500188Z" fill="#A6A6A6"/>
<path d="M13.8318 57.2315C13.3328 57.2315 12.8458 57.2259 12.3507 57.216C11.325 57.2042 10.3017 57.1251 9.28918 56.9795C8.34507 56.8356 7.43048 56.5678 6.57558 56.1851C5.72851 55.8055 4.95592 55.3078 4.2874 54.711C3.60921 54.1213 3.04458 53.4372 2.61589 52.6861C2.18248 51.93 1.88253 51.1196 1.7265 50.2831C1.558 49.3843 1.46683 48.4754 1.45379 47.5644C1.4434 47.2586 1.42981 46.2404 1.42981 46.2404V12.7446C1.42981 12.7446 1.44429 11.742 1.45387 11.4475C1.46636 10.5379 1.557 9.63044 1.725 8.733C1.88132 7.89421 2.18149 7.08148 2.61514 6.32296C3.04225 5.57231 3.60374 4.88779 4.27786 4.29593C4.95121 3.69844 5.72627 3.19817 6.57477 2.81335C7.42771 2.43183 8.34057 2.16596 9.28278 2.02463C10.2986 1.87756 11.3255 1.79804 12.3547 1.78675L13.8326 1.76904H182.159L183.655 1.78746C184.675 1.79819 185.692 1.877 186.699 2.02321C187.65 2.16631 188.573 2.43404 189.435 2.8176C191.135 3.59312 192.518 4.82008 193.391 6.3265C193.818 7.07978 194.113 7.88588 194.268 8.71743C194.438 9.62223 194.533 10.5368 194.552 11.4539C194.557 11.8645 194.557 12.3056 194.557 12.7446C194.57 13.2883 194.57 13.8059 194.57 14.3277V44.6743C194.57 45.201 194.57 45.7151 194.557 46.2333C194.557 46.7048 194.557 47.1368 194.551 47.5814C194.532 48.4821 194.438 49.3803 194.271 50.2689C194.118 51.1115 193.82 51.9282 193.386 52.6904C192.955 53.4334 192.393 54.1115 191.723 54.6997C191.054 55.2997 190.28 55.8003 189.431 56.1823C188.57 56.568 187.649 56.8368 186.699 56.9795C185.686 57.1259 184.663 57.205 183.637 57.216C183.157 57.2259 182.655 57.2315 182.167 57.2315L180.392 57.2344L13.8318 57.2315Z" fill="black"/>
<path d="M40.5693 29.9364C40.5869 28.7261 40.9501 27.5394 41.6249 26.4868C42.2998 25.4342 43.2645 24.5498 44.4292 23.9159C43.6893 22.9804 42.7131 22.2105 41.5784 21.6674C40.4436 21.1243 39.1813 20.8229 37.892 20.7872C35.1415 20.5317 32.4751 22.2442 31.0735 22.2442C29.6448 22.2442 27.4868 20.8126 25.163 20.8549C23.66 20.8979 22.1951 21.2849 20.9112 21.978C19.6273 22.6712 18.568 23.647 17.8368 24.8103C14.669 29.6656 17.0319 36.8011 20.0663 40.7257C21.5845 42.6474 23.3588 44.7941 25.6805 44.7179C27.9524 44.6345 28.8009 43.4354 31.5433 43.4354C34.2602 43.4354 35.0562 44.7179 37.425 44.6695C39.8629 44.6345 41.3988 42.7392 42.8637 40.7993C43.9546 39.43 44.7939 37.9166 45.3508 36.3152C43.9345 35.7848 42.7258 34.8972 41.8755 33.7629C41.0253 32.6285 40.571 31.2977 40.5693 29.9364Z" fill="white"/>
<path d="M36.0953 18.2059C37.4245 16.7933 38.0794 14.9777 37.9208 13.1445C35.8901 13.3334 34.0142 14.1926 32.667 15.551C32.0084 16.2146 31.5039 16.9866 31.1825 17.8229C30.861 18.6592 30.7289 19.5434 30.7937 20.425C31.8095 20.4342 32.8143 20.2393 33.7327 19.855C34.651 19.4706 35.4588 18.9068 36.0953 18.2059Z" fill="white"/>
<path d="M69.2876 39.8526H61.5347L59.6729 44.7195H56.389L63.7325 26.7134H67.1443L74.4877 44.7195H71.1479L69.2876 39.8526ZM62.3377 37.6068H68.4831L65.4536 29.7083H65.3689L62.3377 37.6068Z" fill="white"/>
<path d="M90.3472 38.1561C90.3472 42.2356 87.8807 44.8567 84.1586 44.8567C83.2157 44.9003 82.278 44.7081 81.4528 44.3019C80.6277 43.8957 79.9484 43.292 79.4928 42.5599H79.4223V49.0622H76.3784V31.5914H79.3248V33.7749H79.3808C79.8573 33.0464 80.5481 32.4458 81.3796 32.0371C82.211 31.6284 83.1521 31.4269 84.1026 31.4541C87.8662 31.4541 90.3472 34.0879 90.3472 38.1561ZM87.2185 38.1561C87.2185 35.4982 85.6669 33.7509 83.2996 33.7509C80.9739 33.7509 79.4096 35.535 79.4096 38.1561C79.4096 40.8012 80.9739 42.5727 83.2996 42.5727C85.6669 42.5727 87.2185 40.838 87.2185 38.1561Z" fill="white"/>
<path d="M106.669 38.1561C106.669 42.2356 104.202 44.8567 100.48 44.8567C99.5372 44.9003 98.5995 44.7081 97.7744 44.3019C96.9492 43.8957 96.2699 43.2919 95.8143 42.5599H95.7439V49.0622H92.7V31.5914H95.6463V33.7749H95.7023C96.1788 33.0463 96.8696 32.4458 97.701 32.0371C98.5325 31.6284 99.4736 31.4269 100.424 31.4541C104.188 31.4541 106.669 34.0879 106.669 38.1561ZM103.54 38.1561C103.54 35.4982 101.988 33.7509 99.6212 33.7509C97.2954 33.7509 95.7311 35.535 95.7311 38.1561C95.7311 40.8012 97.2954 42.5726 99.6212 42.5726C101.988 42.5726 103.54 40.838 103.54 38.1561H103.54Z" fill="white"/>
<path d="M117.456 39.7025C117.681 41.4881 119.641 42.6605 122.318 42.6605C124.884 42.6605 126.73 41.488 126.73 39.878C126.73 38.4804 125.617 37.6435 122.981 37.07L120.345 36.5079C116.61 35.7092 114.876 34.1629 114.876 31.6538C114.876 28.547 117.934 26.4131 122.277 26.4131C126.575 26.4131 129.521 28.547 129.62 31.6538H126.548C126.364 29.8568 124.686 28.7722 122.234 28.7722C119.782 28.7722 118.104 29.8696 118.104 31.4669C118.104 32.7399 119.175 33.4889 121.797 34.0624L124.038 34.5495C128.211 35.4232 129.945 36.9072 129.945 39.5409C129.945 42.9096 126.914 45.0195 122.093 45.0195C117.582 45.0195 114.537 42.9592 114.34 39.7023L117.456 39.7025Z" fill="white"/>
<path d="M136.514 28.4849V31.5916H139.334V33.7255H136.514V40.9628C136.514 42.0871 137.079 42.611 138.318 42.611C138.653 42.6059 138.987 42.5851 139.32 42.5487V44.6699C138.762 44.7621 138.196 44.8038 137.629 44.7945C134.627 44.7945 133.456 43.7962 133.456 41.2502V33.7255H131.3V31.5916H133.456V28.4849H136.514Z" fill="white"/>
<path d="M140.968 38.1562C140.968 34.0257 143.716 31.4302 148.001 31.4302C152.3 31.4302 155.035 34.0257 155.035 38.1562C155.035 42.2981 152.315 44.8823 148.001 44.8823C143.688 44.8823 140.968 42.2981 140.968 38.1562ZM151.934 38.1562C151.934 35.3228 150.467 33.6505 148.001 33.6505C145.534 33.6505 144.069 35.3355 144.069 38.1562C144.069 41.001 145.534 42.6606 148.001 42.6606C150.467 42.6606 151.934 41.001 151.934 38.1562H151.934Z" fill="white"/>
<path d="M157.545 31.5913H160.448V33.8258H160.519C160.715 33.1279 161.177 32.5112 161.826 32.0792C162.476 31.6473 163.274 31.4265 164.085 31.4539C164.436 31.4529 164.786 31.4866 165.128 31.5545V34.075C164.686 33.9552 164.224 33.9002 163.761 33.9122C163.318 33.8963 162.878 33.9653 162.468 34.1145C162.059 34.2637 161.691 34.4895 161.39 34.7764C161.089 35.0634 160.861 35.4046 160.723 35.7768C160.584 36.149 160.539 36.5432 160.589 36.9325V44.7192H157.545L157.545 31.5913Z" fill="white"/>
<path d="M179.163 40.8637C178.753 43.2468 176.131 44.8823 172.777 44.8823C168.463 44.8823 165.786 42.3236 165.786 38.2186C165.786 34.1008 168.478 31.4302 172.649 31.4302C176.752 31.4302 179.332 33.9252 179.332 37.9056V38.8289H168.858V38.9917C168.81 39.4748 168.878 39.9616 169.059 40.4195C169.239 40.8775 169.528 41.2962 169.905 41.6479C170.282 41.9996 170.74 42.2762 171.247 42.4594C171.755 42.6425 172.3 42.728 172.848 42.7101C173.567 42.7698 174.289 42.6223 174.906 42.2896C175.523 41.957 176.002 41.4568 176.272 40.8637L179.163 40.8637ZM168.873 36.9456H176.287C176.314 36.5111 176.239 36.0764 176.068 35.6687C175.897 35.2609 175.632 34.8889 175.29 34.5761C174.949 34.2632 174.538 34.0162 174.083 33.8506C173.629 33.685 173.141 33.6043 172.649 33.6137C172.154 33.6111 171.662 33.6954 171.203 33.8617C170.745 34.0281 170.328 34.2733 169.977 34.583C169.626 34.8928 169.347 35.2611 169.158 35.6666C168.968 36.072 168.871 36.5067 168.873 36.9456V36.9456Z" fill="white"/>
<path d="M61.9562 13.1602C62.5943 13.1197 63.2347 13.205 63.8311 13.4101C64.4275 13.6152 64.965 13.9349 65.4049 14.3461C65.8449 14.7574 66.1762 15.2499 66.375 15.7883C66.5739 16.3266 66.6353 16.8973 66.5548 17.4592C66.5548 20.2233 64.8673 21.8121 61.9562 21.8121H58.426V13.1602H61.9562ZM59.944 20.5886H61.7866C62.2426 20.6127 62.699 20.5465 63.1224 20.3948C63.5459 20.2431 63.9258 20.0097 64.2346 19.7117C64.5433 19.4136 64.7731 19.0583 64.9072 18.6717C65.0413 18.2851 65.0763 17.8769 65.0097 17.4769C65.0714 17.0783 65.0329 16.6727 64.8967 16.2889C64.7606 15.9052 64.5302 15.5528 64.2222 15.2571C63.9142 14.9614 63.5361 14.7297 63.115 14.5785C62.6939 14.4274 62.2403 14.3606 61.7866 14.3829H59.944V20.5886Z" fill="white"/>
<path d="M68.2694 18.5445C68.223 18.1154 68.2785 17.6825 68.4322 17.2735C68.5859 16.8645 68.8344 16.4884 69.1619 16.1695C69.4894 15.8505 69.8886 15.5956 70.3339 15.4212C70.7791 15.2468 71.2607 15.1567 71.7476 15.1567C72.2345 15.1567 72.716 15.2468 73.1613 15.4212C73.6065 15.5956 74.0057 15.8505 74.3332 16.1695C74.6607 16.4884 74.9093 16.8645 75.063 17.2735C75.2167 17.6825 75.2721 18.1154 75.2257 18.5445C75.273 18.974 75.2182 19.4075 75.0649 19.8172C74.9116 20.2269 74.6632 20.6036 74.3356 20.9232C74.0081 21.2428 73.6086 21.4982 73.1629 21.673C72.7171 21.8477 72.235 21.938 71.7476 21.938C71.2601 21.938 70.778 21.8477 70.3323 21.673C69.8866 21.4982 69.4871 21.2428 69.1595 20.9232C68.8319 20.6036 68.5835 20.2269 68.4302 19.8172C68.2769 19.4075 68.2221 18.974 68.2694 18.5445ZM73.7286 18.5445C73.7286 17.1292 73.0104 16.3015 71.75 16.3015C70.4847 16.3015 69.773 17.1292 69.773 18.5445C69.773 19.9711 70.4848 20.7924 71.75 20.7924C73.0104 20.7924 73.7286 19.9655 73.7286 18.5445H73.7286Z" fill="white"/>
<path d="M84.4727 21.812H82.9628L81.4384 17.0032H81.3233L79.8053 21.812H78.3097L76.2767 15.2827H77.7531L79.0743 20.2649H79.1831L80.6994 15.2827H82.0958L83.6122 20.2649H83.7273L85.0422 15.2827H86.4977L84.4727 21.812Z" fill="white"/>
<path d="M88.2077 15.2829H89.6088V16.3201H89.7176C89.9021 15.9475 90.2133 15.6353 90.6079 15.4267C91.0024 15.2182 91.4606 15.1239 91.9186 15.1568C92.2774 15.1329 92.6378 15.1808 92.9729 15.297C93.308 15.4131 93.6093 15.5945 93.8545 15.8277C94.0996 16.061 94.2824 16.34 94.3892 16.6443C94.496 16.9485 94.5241 17.2701 94.4714 17.5853V21.812H93.0158V17.9089C93.0158 16.8596 92.5008 16.3378 91.4243 16.3378C91.1806 16.3277 90.9374 16.3645 90.7113 16.4454C90.4852 16.5264 90.2815 16.6496 90.1142 16.8068C89.9469 16.964 89.82 17.1513 89.7422 17.3559C89.6643 17.5606 89.6374 17.7777 89.6632 17.9924V21.8121H88.2076L88.2077 15.2829Z" fill="white"/>
<path d="M96.7906 12.7339H98.2462V21.812H96.7906V12.7339Z" fill="white"/>
<path d="M100.27 18.5446C100.223 18.1155 100.279 17.6826 100.433 17.2735C100.586 16.8645 100.835 16.4885 101.162 16.1695C101.49 15.8505 101.889 15.5956 102.334 15.4212C102.78 15.2468 103.261 15.1567 103.748 15.1567C104.235 15.1567 104.717 15.2468 105.162 15.4212C105.607 15.5956 106.007 15.8505 106.334 16.1695C106.662 16.4885 106.91 16.8645 107.064 17.2735C107.218 17.6826 107.273 18.1155 107.227 18.5446C107.274 18.9741 107.219 19.4077 107.066 19.8173C106.913 20.227 106.664 20.6037 106.336 20.9233C106.009 21.2429 105.609 21.4983 105.164 21.6731C104.718 21.8478 104.236 21.9381 103.748 21.9381C103.261 21.9381 102.779 21.8478 102.333 21.6731C101.887 21.4983 101.488 21.2429 101.16 20.9233C100.833 20.6037 100.584 20.227 100.431 19.8173C100.277 19.4077 100.223 18.9741 100.27 18.5446ZM105.729 18.5446C105.729 17.1293 105.011 16.3016 103.75 16.3016C102.485 16.3016 101.773 17.1293 101.773 18.5446C101.773 19.9713 102.485 20.7925 103.75 20.7925C105.011 20.7925 105.729 19.9656 105.729 18.5446H105.729Z" fill="white"/>
<path d="M108.759 19.9655C108.759 18.7902 109.748 18.1127 111.502 18.0164L113.5 17.9144V17.3509C113.5 16.6612 112.985 16.2718 111.99 16.2718C111.178 16.2718 110.615 16.5359 110.453 16.9976H109.044C109.193 15.8761 110.384 15.1567 112.058 15.1567C113.907 15.1567 114.949 15.9716 114.949 17.3509V21.812H113.548V20.8944H113.433C113.199 21.2236 112.871 21.4919 112.482 21.672C112.093 21.8521 111.656 21.9375 111.218 21.9196C110.908 21.9481 110.595 21.9188 110.299 21.8337C110.003 21.7486 109.73 21.6095 109.499 21.4254C109.267 21.2413 109.082 21.0163 108.954 20.7648C108.827 20.5134 108.76 20.2411 108.759 19.9655ZM113.5 19.4076V18.8617L111.699 18.9637C110.684 19.0239 110.223 19.3297 110.223 19.9053C110.223 20.493 110.799 20.8349 111.59 20.8349C111.822 20.8557 112.057 20.835 112.28 20.774C112.502 20.7129 112.709 20.6129 112.887 20.4797C113.065 20.3465 113.211 20.183 113.317 19.9988C113.422 19.8146 113.485 19.6136 113.5 19.4076Z" fill="white"/>
<path d="M116.862 18.5445C116.862 16.4814 118.06 15.1744 119.924 15.1744C120.385 15.1556 120.842 15.2533 121.243 15.4562C121.643 15.659 121.97 15.9586 122.186 16.3199H122.294V12.7339H123.75V21.812H122.355V20.7804H122.24C122.008 21.1392 121.67 21.4351 121.261 21.6359C120.853 21.8367 120.391 21.9348 119.924 21.9196C118.048 21.9196 116.862 20.6126 116.862 18.5445ZM118.366 18.5445C118.366 19.9294 119.103 20.7627 120.337 20.7627C121.563 20.7627 122.322 19.9174 122.322 18.5502C122.322 17.1894 121.556 16.332 120.337 16.332C119.111 16.332 118.366 17.171 118.366 18.5445H118.366Z" fill="white"/>
<path d="M129.772 18.5445C129.726 18.1154 129.781 17.6825 129.935 17.2735C130.089 16.8645 130.337 16.4884 130.665 16.1695C130.992 15.8505 131.392 15.5956 131.837 15.4212C132.282 15.2468 132.764 15.1567 133.25 15.1567C133.737 15.1567 134.219 15.2468 134.664 15.4212C135.109 15.5956 135.509 15.8505 135.836 16.1695C136.164 16.4884 136.412 16.8645 136.566 17.2735C136.72 17.6825 136.775 18.1154 136.729 18.5445C136.776 18.974 136.721 19.4075 136.568 19.8172C136.415 20.2269 136.166 20.6036 135.839 20.9232C135.511 21.2428 135.111 21.4982 134.666 21.673C134.22 21.8477 133.738 21.938 133.25 21.938C132.763 21.938 132.281 21.8477 131.835 21.673C131.389 21.4982 130.99 21.2428 130.662 20.9232C130.335 20.6036 130.086 20.2269 129.933 19.8172C129.78 19.4075 129.725 18.974 129.772 18.5445ZM135.231 18.5445C135.231 17.1292 134.513 16.3015 133.253 16.3015C131.988 16.3015 131.276 17.1292 131.276 18.5445C131.276 19.9711 131.988 20.7924 133.253 20.7924C134.513 20.7924 135.231 19.9655 135.231 18.5445Z" fill="white"/>
<path d="M138.682 15.2829H140.083V16.3201H140.191C140.376 15.9475 140.687 15.6353 141.082 15.4267C141.476 15.2182 141.934 15.1239 142.392 15.1568C142.751 15.1329 143.112 15.1808 143.447 15.297C143.782 15.4131 144.083 15.5945 144.328 15.8277C144.574 16.061 144.756 16.34 144.863 16.6443C144.97 16.9485 144.998 17.2701 144.945 17.5853V21.812H143.49V17.9089C143.49 16.8596 142.975 16.3378 141.898 16.3378C141.655 16.3277 141.411 16.3645 141.185 16.4454C140.959 16.5264 140.755 16.6496 140.588 16.8068C140.421 16.964 140.294 17.1513 140.216 17.3559C140.138 17.5606 140.111 17.7777 140.137 17.9924V21.8121H138.682V15.2829Z" fill="white"/>
<path d="M153.17 13.6572V15.3125H154.768V16.3979H153.17V19.7553C153.17 20.4392 153.489 20.7387 154.213 20.7387C154.399 20.7382 154.584 20.7283 154.768 20.709V21.7823C154.507 21.8237 154.242 21.8457 153.976 21.8482C152.358 21.8482 151.713 21.3441 151.713 20.0852V16.3979H150.542V15.3125H151.713V13.6572H153.17Z" fill="white"/>
<path d="M156.756 12.7339H158.199V16.332H158.314C158.508 15.956 158.827 15.6419 159.23 15.4326C159.632 15.2233 160.098 15.1289 160.563 15.1624C160.92 15.1452 161.277 15.1979 161.608 15.3169C161.94 15.4358 162.237 15.6181 162.48 15.8506C162.722 16.0831 162.904 16.3601 163.012 16.6619C163.119 16.9637 163.151 17.2828 163.103 17.5965V21.812H161.646V17.9144C161.646 16.8715 161.097 16.3433 160.069 16.3433C159.819 16.3251 159.567 16.3556 159.332 16.4325C159.096 16.5094 158.882 16.631 158.706 16.7887C158.529 16.9463 158.393 17.1363 158.308 17.3453C158.222 17.5543 158.19 17.7773 158.212 17.9986V21.8119H156.756L156.756 12.7339Z" fill="white"/>
<path d="M171.59 20.0492C171.393 20.6459 170.964 21.1621 170.38 21.5074C169.796 21.8527 169.093 22.0052 168.394 21.9381C167.908 21.9495 167.426 21.8671 166.979 21.6967C166.533 21.5263 166.134 21.2719 165.81 20.9513C165.485 20.6306 165.244 20.2513 165.102 19.8398C164.96 19.4283 164.921 18.9943 164.987 18.568C164.923 18.1404 164.962 17.7055 165.104 17.2928C165.246 16.88 165.486 16.499 165.808 16.1755C166.131 15.8521 166.528 15.5937 166.973 15.418C167.418 15.2422 167.901 15.1532 168.388 15.1568C170.44 15.1568 171.678 16.398 171.678 18.4483V18.898H166.47V18.9702C166.447 19.2098 166.481 19.451 166.57 19.6783C166.659 19.9055 166.8 20.1139 166.985 20.29C167.17 20.4661 167.394 20.6061 167.644 20.7009C167.894 20.7958 168.163 20.8434 168.434 20.8407C168.783 20.8777 169.135 20.8222 169.448 20.6812C169.76 20.5403 170.018 20.3203 170.189 20.0491L171.59 20.0492ZM166.47 17.945H170.195C170.214 17.7258 170.18 17.5057 170.097 17.2988C170.013 17.0919 169.882 16.9027 169.711 16.7434C169.54 16.5841 169.333 16.4582 169.104 16.3738C168.875 16.2895 168.628 16.2485 168.38 16.2536C168.128 16.2508 167.878 16.2926 167.645 16.3766C167.412 16.4606 167.2 16.5851 167.022 16.7428C166.844 16.9004 166.704 17.088 166.609 17.2945C166.514 17.5009 166.467 17.7221 166.47 17.945H166.47Z" fill="white"/>
</g>
<defs>
<clipPath id="clip0_3264_6656">
<rect width="196" height="58" fill="white" transform="translate(-0.00012207 0.5)"/>
</clipPath>
</defs>
</svg>
