<svg width="35" height="30" viewBox="0 0 35 30" fill="none" xmlns="http://www.w3.org/2000/svg">
<path d="M27.2035 21.75H10.1372C9.13042 21.75 8.28059 21.0017 8.15324 20.003L6.46322 6.75H30.8893C32.3996 6.75 33.5 8.1809 33.1122 9.64055L30.5862 19.1487C30.1787 20.6824 28.7904 21.75 27.2035 21.75Z" fill="#D9D9D9"/>
<path d="M2 1.5L4.5233 1.9749C5.39096 2.1382 6.04889 2.8511 6.14219 3.72905L6.46322 6.75M6.46322 6.75L8.15324 20.003C8.28059 21.0017 9.13042 21.75 10.1372 21.75H27.2035C28.7904 21.75 30.1787 20.6824 30.5862 19.1487L33.1122 9.64055C33.5 8.1809 32.3996 6.75 30.8893 6.75H6.46322Z" stroke="white" stroke-width="2.5" stroke-linecap="round"/>
<path opacity="0.3" d="M19.0029 17.5H12.6269" stroke="white" stroke-width="1.5" stroke-linecap="round" stroke-linejoin="round"/>
<ellipse opacity="0.3" cx="12.3609" cy="27" rx="2.39101" ry="2.25" fill="white"/>
<ellipse opacity="0.3" cx="26.7071" cy="27" rx="2.39101" ry="2.25" fill="white"/>
</svg>
