<svg width="36" height="37" viewBox="0 0 36 37" fill="none" xmlns="http://www.w3.org/2000/svg">
<path d="M5.18747 20.5C5.18747 19.3954 6.0829 18.5 7.18747 18.5H29.7542C30.8588 18.5 31.7542 19.3954 31.7542 20.5V32.5C31.7542 33.6046 30.8588 34.5 29.7542 34.5H7.18747C6.0829 34.5 5.18747 33.6046 5.18747 32.5V20.5Z" fill="#D9D9D9" stroke="white" stroke-width="2.5"/>
<path d="M23.6968 16.5H32.1096V30.8333C32.1096 33.0425 30.3187 34.8333 28.1096 34.8333H7.77172C5.56259 34.8333 3.77173 33.0425 3.77173 30.8333V16.5H12.1864" stroke="white" stroke-width="2.5"/>
<path d="M25.9101 16.8333H32.3801C33.2086 16.8333 33.8801 16.1618 33.8801 15.3333V10C33.8801 9.17157 33.2086 8.5 32.3801 8.5H3.5C2.67157 8.5 2 9.17157 2 10V15.3333C2 16.1618 2.67157 16.8333 3.5 16.8333H9.97003" stroke="white" stroke-width="2.5"/>
<g opacity="0.3">
<path d="M17.9399 4.50006C17.9399 2.84321 19.283 1.50006 20.9399 1.50006H23.7954C25.4523 1.50006 26.7954 2.84321 26.7954 4.50006V5.16673C26.7954 6.82358 25.4523 8.16673 23.7954 8.16673H17.9399V4.50006Z" stroke="white" stroke-width="2.5"/>
<path d="M17.9399 4.50006C17.9399 2.84321 16.5967 1.50006 14.9399 1.50006H12.0843C10.4275 1.50006 9.08431 2.84321 9.08431 4.50006V5.16673C9.08431 6.82358 10.4275 8.16673 12.0843 8.16673H17.9399V4.50006Z" stroke="white" stroke-width="2.5"/>
<path d="M22.3675 8.16669L22.3675 34.8334L13.5119 34.8334L13.5119 8.16669L22.3675 8.16669Z" fill="#D9D9D9" stroke="white" stroke-width="2.5"/>
</g>
</svg>
