<svg width="231" height="69" viewBox="0 0 231 69" fill="none" xmlns="http://www.w3.org/2000/svg">
<g clip-path="url(#clip0_3081_33615)">
<path d="M222.444 0.5H8.55556C3.83045 0.5 0 4.30558 0 9V60C0 64.6944 3.83045 68.5 8.55556 68.5H222.444C227.17 68.5 231 64.6944 231 60V9C231 4.30558 227.17 0.5 222.444 0.5Z" fill="black"/>
<path d="M222.444 1.86C224.35 1.86 226.178 2.61225 227.526 3.95126C228.874 5.29027 229.631 7.10635 229.631 9V60C229.631 61.8936 228.874 63.7097 227.526 65.0487C226.178 66.3878 224.35 67.14 222.444 67.14H8.55556C6.64953 67.14 4.82158 66.3878 3.47381 65.0487C2.12605 63.7097 1.36889 61.8936 1.36889 60V9C1.36889 7.10635 2.12605 5.29027 3.47381 3.95126C4.82158 2.61225 6.64953 1.86 8.55556 1.86H222.444ZM222.444 0.5H8.55556C6.28648 0.5 4.11034 1.39553 2.50586 2.98959C0.901386 4.58365 0 6.74566 0 9V60C0 62.2543 0.901386 64.4164 2.50586 66.0104C4.11034 67.6045 6.28648 68.5 8.55556 68.5H222.444C224.714 68.5 226.89 67.6045 228.494 66.0104C230.099 64.4164 231 62.2543 231 60V9C231 6.74566 230.099 4.58365 228.494 2.98959C226.89 1.39553 224.714 0.5 222.444 0.5Z" fill="#A6A6A6"/>
<path d="M81.1409 17.9081C81.169 18.5315 81.0697 19.1542 80.8492 19.7385C80.6286 20.3228 80.2913 20.8568 79.8575 21.3081C79.3714 21.8067 78.7848 22.1977 78.1361 22.4555C77.4874 22.7133 76.7912 22.8321 76.0931 22.8041C75.3909 22.8197 74.6931 22.6919 74.0426 22.4287C73.3922 22.1656 72.803 21.7726 72.3115 21.2741C71.3145 20.2609 70.7562 18.9001 70.7562 17.4831C70.7562 16.0661 71.3145 14.7054 72.3115 13.6921C73.0738 12.9521 74.0393 12.4524 75.0865 12.2558C76.1338 12.0592 77.2162 12.1744 78.1978 12.5871C78.8148 12.8391 79.3651 13.2288 79.8062 13.7261L78.8993 14.6271C78.5595 14.2204 78.1289 13.898 77.6418 13.6856C77.1547 13.4731 76.6244 13.3764 76.0931 13.4031C75.4224 13.4077 74.763 13.5755 74.1726 13.8917C73.5822 14.208 73.0788 14.6631 72.7063 15.2172C72.3338 15.7714 72.1036 16.4078 72.0359 17.0708C71.9681 17.7337 72.0648 18.4031 72.3175 19.0203C72.5702 19.6376 72.9713 20.184 73.4856 20.6117C74 21.0394 74.6119 21.3354 75.268 21.4739C75.9241 21.6124 76.6044 21.5891 77.2493 21.4061C77.8942 21.2231 78.4843 20.886 78.9678 20.4241C79.4904 19.8548 79.7935 19.1201 79.8233 18.3501H76.0931V17.1261H81.0724C81.1114 17.3851 81.1342 17.6463 81.1409 17.9081Z" fill="white" stroke="white" stroke-width="0.411304" stroke-miterlimit="10"/>
<path d="M88.9777 13.6579H84.3577V16.8879H88.5671V18.1119H84.3577V21.3419H88.9777V22.5999H83.0231V12.3999H88.9777V13.6579Z" fill="white" stroke="white" stroke-width="0.411304" stroke-miterlimit="10"/>
<path d="M94.5902 22.5999H93.2727V13.6579H90.398V12.3999H97.5333V13.6579H94.5902V22.5999Z" fill="white" stroke="white" stroke-width="0.411304" stroke-miterlimit="10"/>
<path d="M102.564 22.5999V12.3999H103.882V22.5999H102.564Z" fill="white" stroke="white" stroke-width="0.411304" stroke-miterlimit="10"/>
<path d="M109.734 22.5999H108.416V13.6579H105.541V12.3999H112.591V13.6579H109.734V22.5999Z" fill="white" stroke="white" stroke-width="0.411304" stroke-miterlimit="10"/>
<path d="M125.955 21.2742C125.461 21.7656 124.874 22.1554 124.228 22.4214C123.582 22.6874 122.89 22.8242 122.19 22.8242C121.491 22.8242 120.799 22.6874 120.153 22.4214C119.507 22.1554 118.92 21.7656 118.426 21.2742C117.459 20.2526 116.92 18.9028 116.92 17.5002C116.92 16.0976 117.459 14.7478 118.426 13.7262C118.91 13.221 119.495 12.8222 120.143 12.5557C120.791 12.2892 121.489 12.161 122.19 12.1792C122.891 12.1682 123.586 12.2998 124.234 12.5658C124.881 12.8319 125.467 13.2268 125.955 13.7262C126.447 14.2234 126.834 14.8136 127.092 15.4618C127.351 16.11 127.476 16.8031 127.461 17.5002C127.483 18.1982 127.361 18.8933 127.102 19.5425C126.843 20.1916 126.453 20.7811 125.955 21.2742ZM119.401 20.4242C119.766 20.7912 120.2 21.0826 120.679 21.2815C121.158 21.4804 121.672 21.5828 122.19 21.5828C122.709 21.5828 123.223 21.4804 123.702 21.2815C124.181 21.0826 124.615 20.7912 124.98 20.4242C125.718 19.6271 126.128 18.5834 126.128 17.5002C126.128 16.417 125.718 15.3733 124.98 14.5762C124.615 14.2092 124.181 13.9178 123.702 13.7189C123.223 13.52 122.709 13.4176 122.19 13.4176C121.672 13.4176 121.158 13.52 120.679 13.7189C120.2 13.9178 119.766 14.2092 119.401 14.5762C118.663 15.3733 118.253 16.417 118.253 17.5002C118.253 18.5834 118.663 19.6271 119.401 20.4242Z" fill="white" stroke="white" stroke-width="0.411304" stroke-miterlimit="10"/>
<path d="M129.326 22.5999V12.3999H130.917L135.914 20.3389V18.3669V12.3999H137.231V22.5999H135.862L130.643 14.2869V16.2419V22.5999H129.326Z" fill="white" stroke="white" stroke-width="0.411304" stroke-miterlimit="10"/>
<path d="M116.595 37.4751C115.153 37.4784 113.745 37.9065 112.548 38.705C111.351 39.5036 110.42 40.6368 109.871 41.9614C109.323 43.286 109.182 44.7424 109.466 46.1466C109.751 47.5507 110.448 48.8395 111.47 49.8499C112.492 50.8604 113.792 51.547 115.207 51.8232C116.622 52.0993 118.087 51.9525 119.418 51.4013C120.748 50.85 121.884 49.9192 122.683 48.7264C123.481 47.5336 123.905 46.1324 123.902 44.7001C123.916 43.7446 123.736 42.796 123.373 41.9109C123.01 41.0259 122.472 40.2224 121.79 39.5482C121.109 38.8741 120.297 38.3431 119.405 37.987C118.512 37.6308 117.557 37.4567 116.595 37.4751ZM116.595 49.0861C115.711 49.1475 114.83 48.9433 114.064 48.5002C113.299 48.0571 112.686 47.3955 112.304 46.6014C111.922 45.8073 111.789 44.9175 111.923 44.0475C112.057 43.1776 112.451 42.3678 113.055 41.7234C113.658 41.0791 114.443 40.6299 115.306 40.4344C116.17 40.2388 117.073 40.306 117.898 40.627C118.722 40.9481 119.431 41.5082 119.931 42.2346C120.431 42.961 120.7 43.82 120.702 44.7001C120.729 45.2577 120.644 45.8151 120.452 46.3396C120.259 46.864 119.962 47.3448 119.58 47.7536C119.197 48.1623 118.736 48.4908 118.223 48.7197C117.71 48.9486 117.157 49.0731 116.595 49.0861ZM100.648 37.4751C99.2059 37.4784 97.7976 37.9065 96.6007 38.705C95.4039 39.5036 94.4723 40.6368 93.9237 41.9614C93.3751 43.286 93.2342 44.7424 93.5188 46.1466C93.8034 47.5507 94.5007 48.8395 95.5225 49.8499C96.5443 50.8604 97.8448 51.547 99.2594 51.8232C100.674 52.0993 102.139 51.9525 103.47 51.4013C104.801 50.85 105.937 49.9192 106.735 48.7264C107.533 47.5336 107.957 46.1324 107.954 44.7001C107.968 43.7446 107.788 42.796 107.426 41.9109C107.063 41.0259 106.525 40.2224 105.843 39.5482C105.161 38.8741 104.35 38.3431 103.457 37.987C102.565 37.6308 101.609 37.4567 100.648 37.4751ZM100.648 49.0861C99.7639 49.1475 98.8821 48.9433 98.1168 48.5002C97.3514 48.0571 96.738 47.3955 96.3561 46.6014C95.9743 45.8073 95.8417 44.9175 95.9757 44.0475C96.1096 43.1776 96.5039 42.3678 97.1072 41.7234C97.7106 41.0791 98.495 40.6299 99.3587 40.4344C100.222 40.2388 101.125 40.306 101.95 40.627C102.775 40.9481 103.483 41.5082 103.983 42.2346C104.483 42.961 104.752 43.82 104.754 44.7001C104.782 45.2577 104.697 45.8151 104.504 46.3396C104.311 46.864 104.015 47.3448 103.632 47.7536C103.249 48.1623 102.788 48.4908 102.275 48.7197C101.763 48.9486 101.209 49.0731 100.648 49.0861ZM81.6885 39.7021V42.7621H89.0805C88.9646 44.2033 88.3615 45.5633 87.3694 46.6211C86.6278 47.3716 85.736 47.9592 84.7515 48.3457C83.7671 48.7323 82.7119 48.9092 81.6542 48.8651C79.4759 48.8651 77.3868 48.0054 75.8465 46.4751C74.3062 44.9448 73.4409 42.8692 73.4409 40.7051C73.4409 38.5409 74.3062 36.4654 75.8465 34.9351C77.3868 33.4048 79.4759 32.5451 81.6542 32.5451C83.7426 32.5142 85.759 33.3021 87.2667 34.7381L89.4398 32.5791C88.4199 31.5769 87.209 30.7871 85.878 30.2558C84.547 29.7245 83.1227 29.4625 81.6885 29.4851C80.1673 29.4262 78.6498 29.6731 77.2269 30.2109C75.8041 30.7487 74.5052 31.5663 73.408 32.6148C72.3108 33.6632 71.4379 34.921 70.8417 36.3126C70.2455 37.7042 69.9382 39.2011 69.9382 40.7136C69.9382 42.226 70.2455 43.7229 70.8417 45.1145C71.4379 46.5062 72.3108 47.7639 73.408 48.8123C74.5052 49.8608 75.8041 50.6784 77.2269 51.2162C78.6498 51.754 80.1673 52.0009 81.6885 51.9421C83.1522 52.0001 84.6117 51.75 85.9712 51.2079C87.3307 50.6659 88.5594 49.8443 89.5767 48.7971C91.3735 46.836 92.331 44.2567 92.246 41.6061C92.2521 40.9681 92.2006 40.3309 92.092 39.7021H81.6885ZM159.219 42.0821C158.773 40.7777 157.938 39.6388 156.826 38.8161C155.714 37.9934 154.376 37.5258 152.99 37.4751C152.054 37.4732 151.128 37.6622 150.268 38.0302C149.409 38.3982 148.634 38.9374 147.993 39.6146C147.351 40.2917 146.857 41.0924 146.539 41.9671C146.221 42.8418 146.088 43.772 146.146 44.7001C146.131 46.2519 146.622 47.7668 147.546 49.0185C148.469 50.2702 149.776 51.1915 151.27 51.6448C152.763 52.0981 154.365 52.0591 155.835 51.5336C157.304 51.008 158.564 50.0242 159.424 48.7291L156.943 47.0291C156.573 47.6415 156.049 48.1473 155.421 48.4962C154.794 48.8451 154.086 49.025 153.367 49.0181C152.625 49.0485 151.892 48.8553 151.263 48.4639C150.634 48.0725 150.138 47.5012 149.842 46.8251L159.578 42.8301L159.219 42.0821ZM149.294 44.4961C149.26 43.968 149.331 43.4384 149.505 42.9382C149.679 42.438 149.952 41.9774 150.307 41.5832C150.663 41.189 151.094 40.8692 151.575 40.6425C152.056 40.4158 152.578 40.2868 153.11 40.2631C153.662 40.2296 154.211 40.3586 154.688 40.6338C155.166 40.909 155.552 41.3182 155.797 41.8101L149.294 44.4961ZM141.389 51.5001H144.589V30.2501H141.389V51.5001ZM136.153 39.0901H136.033C135.555 38.5492 134.965 38.1173 134.304 37.8239C133.642 37.5305 132.925 37.3825 132.2 37.3901C130.331 37.4802 128.567 38.2816 127.276 39.6283C125.985 40.9749 125.264 42.7636 125.264 44.6236C125.264 46.4835 125.985 48.2722 127.276 49.6189C128.567 50.9655 130.331 51.767 132.2 51.8571C132.926 51.8715 133.646 51.7266 134.308 51.4328C134.971 51.1389 135.56 50.7033 136.033 50.1571H136.153V51.1941C136.153 53.9651 134.664 55.4441 132.269 55.4441C131.469 55.4266 130.692 55.1733 130.037 54.7162C129.382 54.2591 128.878 53.619 128.59 52.8771L125.818 54.0161C126.331 55.2949 127.222 56.3891 128.373 57.154C129.525 57.9189 130.884 58.3186 132.269 58.3001C136.016 58.3001 139.113 56.1071 139.113 50.7691V37.9001H136.153V39.0901ZM132.474 49.0861C131.353 49.0166 130.301 48.5252 129.532 47.7119C128.762 46.8986 128.334 45.8246 128.334 44.7086C128.334 43.5926 128.762 42.5185 129.532 41.7052C130.301 40.8919 131.353 40.4005 132.474 40.3311C133.022 40.3546 133.56 40.4873 134.055 40.7214C134.55 40.9556 134.993 41.2863 135.357 41.6939C135.721 42.1015 135.999 42.5777 136.174 43.0942C136.349 43.6106 136.417 44.1567 136.376 44.7001C136.422 45.2452 136.357 45.7942 136.184 46.3136C136.011 46.8331 135.734 47.3123 135.369 47.7223C135.005 48.1323 134.56 48.4645 134.062 48.6989C133.565 48.9334 133.025 49.065 132.474 49.0861ZM174.208 30.2501H166.542V51.5001H169.742V43.4421H174.208C175.12 43.5072 176.036 43.3849 176.898 43.0829C177.76 42.7809 178.551 42.3057 179.22 41.6868C179.889 41.0679 180.423 40.3187 180.788 39.4859C181.153 38.653 181.341 37.7544 181.341 36.8461C181.341 35.9377 181.153 35.0391 180.788 34.2062C180.423 33.3734 179.889 32.6242 179.22 32.0053C178.551 31.3865 177.76 30.9112 176.898 30.6092C176.036 30.3072 175.12 30.185 174.208 30.2501ZM174.208 40.4501H169.742V33.2081H174.277C174.758 33.2081 175.234 33.3022 175.678 33.485C176.122 33.6678 176.526 33.9358 176.866 34.2736C177.206 34.6114 177.476 35.0125 177.66 35.4539C177.844 35.8952 177.938 36.3683 177.938 36.8461C177.938 37.3238 177.844 37.7969 177.66 38.2383C177.476 38.6797 177.206 39.0807 176.866 39.4185C176.526 39.7563 176.122 40.0243 175.678 40.2071C175.234 40.39 174.758 40.4841 174.277 40.4841L174.208 40.4501ZM193.954 37.4071C192.789 37.3357 191.628 37.6052 190.616 38.1823C189.603 38.7594 188.783 39.6187 188.256 40.6541L191.08 41.8271C191.365 41.3161 191.793 40.898 192.312 40.6235C192.832 40.349 193.42 40.2297 194.006 40.2801C194.412 40.2329 194.824 40.2666 195.217 40.3792C195.609 40.4918 195.976 40.681 196.294 40.9358C196.613 41.1905 196.877 41.5058 197.072 41.8631C197.267 42.2205 197.388 42.6128 197.428 43.0171V43.2211C196.399 42.6837 195.254 42.4036 194.091 42.4051C191.046 42.4051 187.931 44.1051 187.931 47.1991C187.961 47.8567 188.124 48.5016 188.41 49.0955C188.696 49.6894 189.099 50.2201 189.596 50.6562C190.092 51.0923 190.672 51.4248 191.3 51.634C191.928 51.8432 192.592 51.9249 193.253 51.8741C194.056 51.9182 194.856 51.7494 195.572 51.3849C196.287 51.0205 196.893 50.4735 197.325 49.8001H197.428V51.5001H200.508V43.3231C200.508 39.6001 197.668 37.4411 194.023 37.4411L193.954 37.4071ZM193.561 49.0521C192.517 49.0521 191.063 48.5251 191.063 47.2501C191.063 45.5501 192.876 44.9721 194.485 44.9721C195.501 44.9471 196.506 45.1937 197.394 45.6861C197.286 46.6093 196.846 47.4625 196.154 48.0877C195.461 48.7128 194.565 49.0675 193.629 49.0861L193.561 49.0521ZM211.733 37.9001L208.071 47.1141H207.968L204.17 37.9001H200.748L206.446 50.7861L203.194 57.9431H206.531L215.292 37.9001H211.733ZM182.986 51.5001H186.169V30.2501H182.986V51.5001Z" fill="white"/>
<path d="M17.864 13.3182C17.3001 13.9806 17.0124 14.832 17.0598 15.6982V53.3022C17.0016 54.1699 17.2906 55.0252 17.864 55.6822L17.9838 55.8182L39.1844 34.7552V34.2452L17.9838 13.1992L17.864 13.3182Z" fill="url(#paint0_linear_3081_33615)"/>
<path d="M46.2 41.7761L39.1844 34.7551V34.2451L46.2 27.2241L46.354 27.3261L54.7555 32.0521C57.1511 33.3951 57.1511 35.6051 54.7555 36.9651L46.3882 41.6911L46.2 41.7761Z" fill="url(#paint1_linear_3081_33615)"/>
<path d="M46.4053 41.674L39.1844 34.5L17.864 55.682C18.3475 56.1096 18.9664 56.3556 19.6134 56.3773C20.2603 56.3991 20.8945 56.1952 21.406 55.801L46.4053 41.674Z" fill="url(#paint2_linear_3081_33615)"/>
<path d="M46.4053 27.3262L21.406 13.2162C20.8978 12.8166 20.2641 12.6077 19.6163 12.6264C18.9685 12.645 18.348 12.89 17.864 13.3182L39.1844 34.5002L46.4053 27.3262Z" fill="url(#paint3_linear_3081_33615)"/>
<path opacity="0.2" d="M46.2 41.521L21.406 55.546C20.9131 55.9156 20.3124 56.1155 19.6949 56.1155C19.0774 56.1155 18.4767 55.9156 17.9838 55.546L17.864 55.665L17.9838 55.801C18.4767 56.1706 19.0774 56.3705 19.6949 56.3705C20.3124 56.3705 20.9131 56.1706 21.406 55.801L46.4053 41.674L46.2 41.521Z" fill="black"/>
<path opacity="0.12" d="M17.864 55.4444C17.3144 54.7701 17.045 53.9125 17.1111 53.0474V53.3024C17.0529 54.17 17.3419 55.0254 17.9153 55.6824L18.0351 55.5634L17.864 55.4444Z" fill="black"/>
<path opacity="0.12" d="M54.7556 36.71L46.2 41.521L46.354 41.674L54.7556 36.948C55.2515 36.7397 55.6817 36.4023 56.0009 35.9715C56.3201 35.5407 56.5165 35.0324 56.5693 34.5C56.4624 34.9838 56.2425 35.4358 55.9274 35.8197C55.6124 36.2035 55.211 36.5085 54.7556 36.71Z" fill="black"/>
<path opacity="0.25" d="M21.406 13.4538L54.7556 32.2898C55.211 32.4913 55.6124 32.7962 55.9274 33.1801C56.2425 33.564 56.4624 34.016 56.5693 34.4998C56.5165 33.9674 56.3201 33.4591 56.0009 33.0282C55.6817 32.5974 55.2515 32.2601 54.7556 32.0518L21.406 13.2158C19.0276 11.8558 17.0598 12.9778 17.0598 15.6978V15.9528C17.1111 13.2328 19.0276 12.1108 21.406 13.4538Z" fill="white"/>
</g>
<defs>
<linearGradient id="paint0_linear_3081_33615" x1="37.3022" y1="15.3072" x2="8.77682" y2="44.0191" gradientUnits="userSpaceOnUse">
<stop stop-color="#00A0FF"/>
<stop offset="0.01" stop-color="#00A1FF"/>
<stop offset="0.26" stop-color="#00BEFF"/>
<stop offset="0.51" stop-color="#00D2FF"/>
<stop offset="0.76" stop-color="#00DFFF"/>
<stop offset="1" stop-color="#00E3FF"/>
</linearGradient>
<linearGradient id="paint1_linear_3081_33615" x1="57.8869" y1="34.5001" x2="16.4951" y2="34.5001" gradientUnits="userSpaceOnUse">
<stop stop-color="#FFE000"/>
<stop offset="0.41" stop-color="#FFBD00"/>
<stop offset="0.78" stop-color="#FFA500"/>
<stop offset="1" stop-color="#FF9C00"/>
</linearGradient>
<linearGradient id="paint2_linear_3081_33615" x1="42.4869" y1="38.41" x2="3.79559" y2="77.3371" gradientUnits="userSpaceOnUse">
<stop stop-color="#FF3A44"/>
<stop offset="1" stop-color="#C31162"/>
</linearGradient>
<linearGradient id="paint3_linear_3081_33615" x1="12.4911" y1="0.806241" x2="29.7627" y2="18.1908" gradientUnits="userSpaceOnUse">
<stop stop-color="#32A071"/>
<stop offset="0.07" stop-color="#2DA771"/>
<stop offset="0.48" stop-color="#15CF74"/>
<stop offset="0.8" stop-color="#06E775"/>
<stop offset="1" stop-color="#00F076"/>
</linearGradient>
<clipPath id="clip0_3081_33615">
<rect width="231" height="68" fill="white" transform="translate(0 0.5)"/>
</clipPath>
</defs>
</svg>
