<svg width="36" height="33" viewBox="0 0 36 33" fill="none" xmlns="http://www.w3.org/2000/svg">
<path d="M16.177 5.58331C16.177 5.03103 15.7288 4.57985 15.1777 4.61647C12.7255 4.77942 10.3542 5.53992 8.30069 6.83038C5.96929 8.29547 4.15219 10.3779 3.07916 12.8142C2.00614 15.2505 1.72538 17.9314 2.27241 20.5178C2.81943 23.1043 4.16966 25.48 6.15235 27.3447C8.13504 29.2094 10.6611 30.4793 13.4112 30.9938C16.1613 31.5083 19.0118 31.2442 21.6023 30.235C24.1928 29.2259 26.407 27.5169 27.9648 25.3242C29.3252 23.4094 30.1317 21.2009 30.3142 18.9156C30.3582 18.3651 29.9063 17.9166 29.354 17.9166H17.677C16.8486 17.9166 16.177 17.2451 16.177 16.4166V5.58331Z" fill="#D9D9D9" stroke="white" stroke-width="2.5"/>
<path opacity="0.3" d="M21.4939 2.25C21.4939 1.69772 21.9423 1.24605 22.493 1.2879C23.7796 1.38569 25.0443 1.67197 26.2407 2.13807C27.7457 2.72438 29.1131 3.58374 30.2649 4.66709C31.4167 5.75044 32.3304 7.03656 32.9537 8.45203C33.4413 9.55902 33.7437 10.7282 33.8524 11.918C33.9027 12.468 33.4502 12.9167 32.8979 12.9167L22.4939 12.9167C21.9416 12.9167 21.4939 12.469 21.4939 11.9167V2.25Z" stroke="white" stroke-width="2.5"/>
</svg>
